<?xml version="1.0" standalone="no"?>
<!DOCTYPE svg PUBLIC "-//W3C//DTD SVG 20010904//EN"
 "http://www.w3.org/TR/2001/REC-SVG-20010904/DTD/svg10.dtd">
<svg version="1.0" xmlns="http://www.w3.org/2000/svg"
 width="704.000000pt" height="704.000000pt" viewBox="0 0 704.000000 704.000000"
 preserveAspectRatio="xMidYMid meet">

<g transform="translate(0.000000,704.000000) scale(0.100000,-0.100000)"
fill="#000000" stroke="none">
<path d="M4254 6301 c-36 -22 -54 -65 -54 -131 0 -62 20 -125 87 -278 68 -156
106 -303 133 -515 24 -187 24 -184 57 -297 61 -206 171 -332 330 -379 l58 -17
3 -109 c2 -97 -1 -124 -32 -244 -18 -75 -40 -167 -47 -206 -15 -77 -19 -393
-6 -512 4 -40 4 -73 0 -73 -5 0 -19 21 -32 46 -14 25 -73 120 -133 211 -168
255 -153 208 -154 488 -1 226 -2 246 -27 339 -15 55 -45 136 -67 182 -71 142
-219 301 -387 415 -133 90 -175 138 -259 291 -62 112 -88 145 -134 168 -82 42
-149 19 -192 -63 -19 -36 -23 -66 -29 -217 -4 -96 -17 -240 -30 -320 -27 -179
-30 -373 -6 -472 50 -206 180 -360 392 -466 145 -73 275 -104 525 -127 91 -9
172 -18 180 -20 15 -5 162 -222 269 -399 83 -137 115 -218 146 -376 14 -74 49
-222 76 -328 61 -236 89 -398 89 -508 0 -81 -11 -108 -25 -61 -12 38 -103 215
-136 265 -18 26 -69 97 -114 157 -46 61 -90 124 -98 141 -9 18 -23 83 -31 145
-20 147 -38 198 -93 259 -79 88 -138 114 -430 185 -189 47 -343 99 -545 186
-135 58 -139 57 -158 -21 -14 -60 -1 -190 29 -275 55 -157 174 -308 290 -369
98 -51 138 -64 292 -91 74 -13 196 -38 270 -55 123 -29 143 -32 240 -26 l106
7 49 -54 c115 -127 221 -295 298 -478 48 -110 49 -114 43 -188 -7 -80 -56
-367 -83 -486 -21 -90 -81 -214 -140 -288 -93 -119 -281 -212 -504 -251 -209
-36 -676 -152 -900 -223 -522 -166 -681 -203 -910 -210 -132 -4 -154 -2 -245
21 -137 36 -198 68 -275 146 -52 53 -79 93 -133 197 -36 71 -82 170 -101 219
-41 108 -170 533 -164 540 7 7 84 -28 174 -78 149 -84 267 -118 410 -118 98 0
188 23 305 78 105 50 411 147 520 166 44 8 83 17 87 20 13 13 -27 34 -133 70
-171 59 -358 160 -484 264 -63 51 -123 81 -162 82 -14 0 -63 -13 -109 -29 -64
-22 -90 -27 -112 -20 -15 5 -41 13 -56 18 -39 12 -128 -17 -189 -62 -50 -36
-195 -182 -251 -252 -27 -33 -34 -37 -42 -25 -16 26 -128 370 -154 475 -54
218 -61 269 -60 480 0 214 6 275 59 570 19 105 41 238 48 298 8 59 16 110 19
112 3 3 31 -5 64 -17 57 -22 70 -23 419 -23 198 0 365 -3 372 -8 17 -11 -49
-224 -105 -337 -61 -123 -146 -237 -244 -329 -115 -107 -142 -176 -99 -247 40
-65 291 -169 506 -209 313 -58 348 -22 158 163 -178 175 -255 220 -287 170
-25 -41 75 -179 186 -255 70 -48 85 -67 46 -59 -13 3 -72 15 -132 26 -147 28
-360 111 -424 165 -26 22 -32 34 -32 67 0 37 7 47 113 156 173 180 256 320
325 547 54 176 66 257 58 383 -10 173 -56 269 -196 412 -96 99 -158 134 -300
170 -105 27 -300 38 -382 21 -47 -10 -63 -20 -97 -56 -22 -24 -43 -56 -46 -72
-4 -15 -9 -34 -11 -42 -2 -7 5 -50 15 -96 21 -87 51 -296 51 -353 l0 -34 -54
6 c-29 4 -76 13 -104 21 -43 11 -53 11 -62 0 -14 -17 37 -56 145 -112 43 -22
75 -44 75 -53 0 -26 -48 -339 -69 -450 -41 -219 -61 -400 -61 -560 0 -185 59
-470 155 -750 81 -234 105 -309 177 -545 116 -386 211 -593 329 -719 86 -91
149 -128 279 -163 94 -25 121 -28 260 -27 227 0 408 40 901 197 244 78 714
196 962 242 194 35 365 115 466 216 44 45 100 128 144 214 20 39 63 111 97
160 34 50 97 145 141 212 l81 121 121 64 c174 92 259 150 357 249 141 141 206
262 231 430 13 89 10 122 -27 348 -27 167 -42 211 -79 231 -61 33 -112 -14
-200 -180 -64 -122 -77 -139 -150 -204 -191 -170 -243 -241 -301 -416 -28 -84
-29 -89 -29 -326 l-1 -242 -33 -53 c-66 -108 -146 -212 -149 -195 -2 9 8 78
22 153 46 258 50 297 50 493 0 218 -7 267 -89 585 -74 286 -88 366 -82 464 6
115 36 207 83 253 76 77 246 141 446 168 105 15 195 43 293 92 106 53 156 91
246 185 149 157 288 392 329 557 45 179 11 483 -62 557 -49 49 -72 41 -189
-63 -125 -110 -222 -175 -389 -258 -211 -105 -307 -182 -400 -316 -103 -149
-175 -341 -215 -573 -30 -173 -42 -221 -60 -241 -22 -25 -83 -152 -95 -197 -6
-24 -14 -43 -19 -43 -13 0 -31 206 -31 360 0 164 14 264 65 471 25 98 38 179
42 253 l6 108 31 13 c117 50 215 197 272 410 35 128 36 270 5 390 -25 92 -110
276 -170 363 -126 186 -297 307 -514 367 -54 14 -121 37 -150 50 -78 36 -107
39 -143 16z m106 -53 c25 -11 86 -33 135 -48 88 -26 90 -27 87 -56 -1 -16 -5
-77 -8 -136 -4 -60 -9 -108 -13 -108 -7 0 -199 246 -245 314 -42 63 -32 70 44
34z m-81 -60 c7 -13 65 -92 129 -176 63 -84 113 -154 111 -156 -2 -2 -38 -7
-80 -10 l-76 -7 -42 96 c-60 137 -71 171 -71 226 0 54 8 61 29 27z m436 -69
c99 -52 99 -51 65 -120 -29 -56 -61 -162 -75 -241 -3 -21 -10 -38 -15 -38 -5
0 -20 19 -34 43 -29 48 -52 203 -42 271 10 61 26 116 34 116 4 0 34 -14 67
-31z m202 -151 c29 -29 53 -56 53 -60 0 -5 -11 -25 -25 -46 -31 -47 -90 -210
-108 -298 -7 -37 -18 -69 -23 -71 -5 -1 -24 31 -43 72 -31 68 -33 80 -28 136
4 33 14 88 23 122 19 76 73 197 88 197 6 0 34 -23 63 -52z m138 -179 c20 -34
42 -77 50 -96 l15 -35 -77 -121 c-42 -67 -92 -155 -111 -194 -19 -40 -38 -73
-42 -73 -12 0 -30 74 -30 123 0 131 104 457 145 457 8 0 30 -27 50 -61z m-497
5 c21 -4 121 -138 111 -149 -3 -2 -32 4 -64 14 -33 10 -90 22 -126 25 -66 7
-66 7 -78 45 -18 62 -15 69 27 73 37 4 88 0 130 -8z m-981 -163 c29 -18 55
-57 140 -210 l30 -53 -38 -110 c-21 -60 -45 -145 -55 -189 -9 -43 -20 -79 -24
-79 -23 0 -60 188 -60 303 0 66 -32 232 -66 340 -7 24 31 23 73 -2z m1010 -16
c119 -38 135 -51 172 -140 18 -42 30 -79 27 -82 -2 -3 -42 20 -88 50 -46 31
-121 74 -167 96 -87 42 -101 53 -101 84 0 25 62 22 157 -8z m-1097 -110 c13
-47 25 -135 30 -215 8 -123 18 -195 36 -257 9 -32 0 -29 -54 16 -26 22 -60 50
-75 63 l-29 23 11 115 c6 63 11 155 11 203 0 57 5 101 16 125 19 45 24 38 54
-73z m1668 68 c5 -10 16 -47 25 -83 32 -129 36 -114 -69 -224 -52 -54 -113
-123 -136 -152 -23 -30 -44 -51 -49 -47 -4 4 -10 31 -13 58 -5 42 -1 63 27
130 33 82 183 335 198 335 5 0 12 -8 17 -17z m-629 -82 c61 -31 162 -97 247
-163 42 -32 54 -47 63 -85 7 -25 10 -47 8 -49 -2 -2 -39 16 -82 41 -66 38
-220 109 -277 128 -11 4 -19 22 -23 54 -3 26 -8 57 -10 69 -4 19 1 34 12 34 2
0 30 -13 62 -29z m-700 -214 c20 -17 50 -42 66 -54 28 -20 29 -23 16 -45 -64
-102 -100 -238 -101 -376 0 -78 -3 -103 -12 -100 -7 3 -37 39 -65 82 -50 72
-53 80 -53 139 0 89 83 387 108 387 2 0 21 -15 41 -33z m804 -28 c67 -34 147
-79 178 -101 47 -32 58 -46 62 -76 4 -20 4 -38 2 -40 -3 -3 -37 18 -77 45 -84
58 -170 103 -246 127 -29 10 -57 26 -62 36 -15 29 -12 70 5 70 8 0 70 -28 138
-61z m571 -11 c-38 -213 -127 -398 -224 -462 -22 -14 -40 -23 -41 -19 0 5 -1
57 0 116 l0 109 45 63 c58 80 194 225 212 225 10 0 12 -9 8 -32z m-1129 -148
c14 -16 14 -25 -4 -96 -52 -201 -63 -347 -36 -475 9 -40 13 -75 10 -78 -4 -3
-43 33 -89 81 -76 79 -84 91 -94 144 -16 79 -15 161 4 251 20 97 50 179 81
221 l24 32 45 -31 c24 -18 51 -40 59 -49z m534 44 c68 -30 183 -107 239 -158
41 -38 42 -39 42 -106 0 -96 -8 -130 -32 -130 -10 0 -51 16 -92 35 -117 56
-198 159 -242 311 -9 32 -19 65 -22 73 -7 18 32 9 107 -25z m1499 -56 c-26
-95 -80 -231 -93 -235 -6 -2 -19 36 -29 84 l-18 88 74 67 c40 38 76 68 80 68
3 0 -3 -33 -14 -72z m100 17 c16 -49 32 -156 32 -221 l0 -52 -37 -6 c-21 -4
-62 -14 -91 -23 -29 -9 -55 -13 -58 -10 -3 3 8 34 24 69 27 57 52 130 82 246
13 52 30 51 48 -3z m-2731 -84 c93 -80 129 -122 196 -223 62 -96 61 -98 -26
-73 -53 14 -225 36 -262 32 -17 -2 -20 5 -23 48 -3 47 13 219 24 258 3 9 9 17
14 17 5 0 40 -26 77 -59z m712 -30 l41 -49 -19 -43 c-37 -85 -55 -205 -55
-371 -1 -87 -4 -158 -8 -158 -13 0 -57 107 -69 168 -20 107 6 380 46 485 11
26 19 21 64 -32z m1751 -38 c6 -21 13 -76 17 -123 l6 -85 -57 -88 c-32 -48
-58 -87 -59 -87 -2 0 -3 57 -3 128 -1 93 -5 139 -17 171 -10 24 -15 46 -12 49
11 11 101 71 107 71 4 1 12 -16 18 -36z m-1613 -157 l25 -49 -25 -56 c-45
-100 -61 -170 -61 -271 0 -52 3 -107 7 -122 5 -21 4 -28 -6 -28 -27 0 -48 38
-64 116 -14 68 -14 96 -4 199 12 125 31 229 51 280 l12 30 20 -25 c11 -14 31
-47 45 -74z m1461 43 c30 -99 -7 -363 -58 -413 l-21 -21 6 85 c6 76 2 135 -21
315 -6 50 -6 51 27 67 19 9 38 15 44 14 5 -1 16 -22 23 -47z m-129 -107 c23
-182 7 -374 -36 -414 -12 -12 -25 -19 -28 -16 -3 3 -10 65 -15 139 -13 172
-19 243 -26 299 -5 44 -4 46 28 62 61 30 64 27 77 -70z m578 -1 c-3 -27 -13
-74 -22 -104 -18 -61 -27 -67 -106 -67 -26 0 -88 -11 -138 -24 -50 -13 -91
-19 -91 -14 0 5 26 48 59 96 62 92 81 107 191 143 30 10 68 18 84 18 29 1 29
1 23 -48z m-742 -1 c10 -16 34 -218 41 -351 l7 -125 -34 -27 c-18 -14 -37 -23
-41 -21 -4 3 -8 27 -8 53 0 64 -27 218 -56 319 -13 45 -24 84 -24 87 0 6 92
75 101 75 4 0 11 -4 14 -10z m-1872 -50 c134 -34 190 -65 258 -142 34 -38 55
-68 47 -68 -8 0 -41 9 -73 20 -94 32 -259 60 -359 60 l-93 0 -17 58 c-9 32
-16 69 -16 82 0 23 1 23 88 17 48 -4 122 -16 165 -27z m766 -57 c22 -83 31
-175 31 -319 0 -83 -3 -153 -6 -157 -15 -14 -65 39 -81 87 -27 79 -25 259 5
354 12 39 27 72 32 72 5 0 14 -17 19 -37z m966 -37 c17 -41 51 -231 60 -342
l7 -82 -36 -27 c-19 -15 -40 -24 -46 -20 -5 3 -10 27 -10 53 0 54 -24 207 -47
303 l-16 67 33 41 c18 22 35 41 37 41 2 0 10 -15 18 -34z m-3649 9 c130 -12
273 -63 349 -124 105 -84 212 -244 234 -349 13 -64 14 -241 1 -262 -7 -12 -22
-8 -87 27 -132 70 -169 76 -498 82 l-290 6 -8 70 c-14 119 -35 256 -53 340
-15 73 -16 83 -2 116 9 20 33 49 53 65 54 41 113 46 301 29z m4433 -148 c-18
-34 -36 -65 -41 -68 -5 -3 -33 -2 -61 3 -28 5 -98 8 -154 6 -57 -1 -103 0
-103 4 0 15 70 59 121 77 71 24 241 53 261 43 4 -2 -6 -31 -23 -65z m-2420 29
c155 -36 374 -117 358 -133 -3 -3 -74 -4 -158 -4 -139 2 -159 0 -235 -25 l-83
-26 -29 21 c-56 40 -149 171 -136 192 10 17 153 4 283 -25z m1531 -58 c18 -87
41 -309 35 -337 -7 -27 -118 -125 -129 -114 -3 4 -6 29 -6 57 -1 28 -7 86 -15
129 -12 68 -12 84 1 120 23 65 86 197 95 197 4 0 12 -23 19 -52z m788 -84 c28
-8 28 -12 -8 -61 l-30 -41 -73 20 c-39 10 -114 22 -164 25 -51 3 -93 9 -93 13
0 34 127 61 255 55 50 -3 100 -8 113 -11z m-1912 -57 c54 -12 122 -49 123 -69
1 -4 -52 -5 -116 -1 -90 4 -136 1 -193 -12 -141 -31 -141 -31 -214 10 -90 50
-88 57 17 81 72 16 283 11 383 -9z m1754 -63 c39 -8 73 -20 76 -26 6 -10 -108
-133 -158 -169 -26 -19 -27 -19 -90 0 -72 23 -181 47 -250 56 -27 3 -48 9 -47
13 0 4 42 37 92 74 l92 67 108 1 c64 0 136 -6 177 -16z m-1581 -77 c52 -14
112 -59 98 -73 -4 -4 -60 -2 -125 4 -261 26 -430 69 -334 85 56 10 308 -1 361
-16z m805 -98 c11 -111 9 -122 -29 -159 -19 -19 -35 -30 -35 -24 0 5 9 58 20
118 11 60 20 113 20 118 0 4 4 8 9 8 4 0 11 -28 15 -61z m376 -14 c116 -21
213 -48 217 -61 4 -13 -144 -75 -222 -93 -53 -13 -72 -10 -201 27 -34 9 -63
22 -65 27 -1 6 26 34 62 62 72 59 80 61 209 38z m-3484 -105 c65 -12 194 -57
194 -69 0 -10 -307 -26 -470 -25 -136 1 -212 17 -270 56 -68 47 -61 48 222 48
146 0 291 -5 324 -10z m3252 -61 c30 -11 21 -26 -21 -34 -17 -3 -60 -16 -95
-27 -35 -11 -65 -18 -68 -16 -2 3 16 26 40 52 41 45 46 47 82 40 22 -4 49 -11
62 -15z m-1794 -267 c27 -53 126 -151 199 -197 26 -17 47 -33 47 -37 0 -15
-99 -8 -162 12 -78 24 -92 39 -107 108 -11 53 -15 162 -6 162 2 0 16 -22 29
-48z m128 7 c68 -27 80 -36 111 -82 51 -78 70 -117 55 -117 -40 0 -258 186
-258 220 0 15 8 13 92 -21z m234 -89 c14 -6 29 -32 48 -82 44 -119 44 -111 5
-95 -28 11 -41 28 -76 98 -23 46 -42 88 -42 92 -1 8 18 4 65 -13z m142 -49
c38 -21 155 -192 140 -206 -3 -3 -32 4 -64 17 -57 22 -60 26 -96 97 -45 87
-49 116 -15 105 12 -3 28 -10 35 -13z m180 -40 c24 -5 46 -12 49 -15 6 -6 61
-159 70 -195 5 -21 3 -23 -13 -17 -10 5 -31 12 -45 17 -17 7 -34 29 -53 67
-16 31 -41 76 -57 100 -33 49 -36 66 -11 58 9 -3 36 -10 60 -15z m177 -50 c35
-16 45 -28 75 -92 31 -68 53 -179 36 -179 -4 0 -27 11 -50 25 -39 23 -46 33
-84 130 -57 145 -56 152 23 116z m-745 -57 c30 -8 98 -14 152 -14 97 0 168
-16 168 -39 0 -23 -167 -53 -270 -49 l-75 3 -32 55 c-37 61 -41 75 -15 65 9
-3 42 -13 72 -21z m957 -123 c25 -57 52 -205 40 -218 -5 -4 -25 13 -47 37 -33
38 -39 52 -40 90 0 40 -12 98 -36 180 -7 25 -7 25 26 -5 18 -16 44 -54 57 -84z
m1253 54 c0 -9 -41 -182 -57 -237 -8 -32 -19 -58 -24 -58 -4 0 -15 26 -24 57
-16 56 -16 58 7 107 32 68 75 136 88 136 5 0 10 -2 10 -5z m-1739 -27 c41 -12
51 -31 22 -43 -145 -59 -284 -90 -365 -83 -38 4 -57 12 -80 35 l-30 30 82 7
c92 7 196 28 255 50 50 18 68 19 116 4z m1826 -139 c26 -160 27 -169 11 -169
-7 0 -42 -14 -77 -30 -35 -17 -65 -29 -67 -27 -2 2 12 58 31 125 19 67 39 149
46 183 7 35 16 58 23 56 6 -2 21 -64 33 -138z m-1647 73 c19 -9 35 -22 35 -27
0 -17 -226 -125 -287 -137 -53 -11 -64 -10 -135 13 -84 27 -106 49 -50 49 58
0 222 46 294 84 78 40 94 42 143 18z m147 -77 c23 -14 43 -30 43 -35 0 -8
-106 -52 -188 -76 -55 -17 -165 -19 -160 -3 2 6 33 23 68 38 36 15 92 44 125
64 33 20 62 36 64 37 2 0 24 -11 48 -25z m137 -116 c21 -22 35 -46 33 -52 -2
-7 -25 -17 -52 -24 -40 -10 -62 -10 -122 3 -41 8 -84 19 -96 23 l-22 9 25 11
c25 11 180 68 191 70 4 0 23 -17 43 -40z m1148 -66 c11 -85 10 -93 -11 -146
-13 -31 -27 -55 -31 -52 -4 3 -13 25 -19 50 -6 25 -22 69 -35 97 l-24 52 47
52 c25 29 50 49 54 45 4 -4 13 -48 19 -98z m-3340 35 c84 -67 214 -196 205
-204 -20 -20 -165 89 -232 174 -68 86 -59 97 27 30z m3214 -130 c12 -31 27
-86 33 -123 12 -65 11 -68 -16 -111 -15 -24 -31 -44 -34 -44 -4 0 -15 35 -24
78 -10 42 -29 105 -42 140 l-26 63 34 29 c19 16 38 28 44 26 5 -1 19 -28 31
-58z m371 -15 c-11 -128 -1 -120 -128 -119 -71 0 -108 4 -105 11 35 88 40 96
84 124 57 36 110 60 136 61 18 0 18 -6 13 -77z m-494 -65 c25 -67 38 -125 46
-202 8 -69 7 -72 -22 -113 -17 -24 -35 -43 -41 -43 -11 0 -86 250 -86 287 0
20 66 113 80 113 4 0 14 -19 23 -42z m453 -110 c4 -4 1 -21 -6 -38 -12 -29
-15 -30 -74 -30 -33 -1 -91 -7 -128 -14 -55 -10 -68 -10 -68 0 0 20 59 73 93
83 35 11 172 10 183 -1z m-555 -153 c41 -153 44 -172 29 -190 -17 -21 -27 -19
-36 8 -3 12 -22 57 -42 100 l-35 78 18 60 c10 33 23 58 28 56 5 -1 23 -52 38
-112z m499 29 c0 -4 -19 -31 -42 -60 l-43 -53 -65 -1 c-36 0 -92 -4 -124 -10
-33 -5 -62 -7 -64 -5 -6 5 46 83 62 92 42 26 276 57 276 37z m-555 -217 l27
-84 -21 -41 c-12 -23 -25 -42 -30 -42 -5 0 -11 17 -15 38 -9 56 -7 212 3 212
5 0 21 -38 36 -83z m403 44 c-4 -10 -96 -91 -106 -92 -45 -7 -182 -5 -182 2 0
25 59 70 110 83 60 16 184 21 178 7z m-3335 -97 c18 -10 69 -46 113 -80 85
-66 301 -190 373 -214 57 -19 51 -33 -11 -25 -29 3 -201 19 -383 35 -494 45
-635 39 -784 -30 -35 -17 -66 -29 -68 -26 -7 7 103 130 174 196 126 116 202
152 266 125 51 -21 95 -19 168 10 76 29 109 31 152 9z m3127 -53 c0 -10 -151
-101 -168 -101 -18 0 -14 11 16 55 28 41 52 51 120 54 17 0 32 -3 32 -8z
m-3185 -256 c83 -7 214 -19 293 -26 78 -7 142 -16 142 -20 0 -4 -93 -10 -207
-14 -167 -6 -247 -4 -403 10 -107 10 -232 20 -277 23 -46 2 -83 8 -83 13 0 8
10 10 115 29 57 10 201 5 420 -15z m-275 -82 c104 -12 222 -16 419 -15 151 1
270 -2 265 -7 -5 -5 -40 -19 -79 -31 -38 -13 -113 -42 -165 -65 -137 -62 -190
-75 -295 -75 -110 0 -219 25 -314 73 -213 107 -236 120 -216 128 35 13 236 9
385 -8z"/>
</g>
</svg>
