<?xml version="1.0" encoding="UTF-8"?>
<svg version="1.1" xmlns="http://www.w3.org/2000/svg" width="1080" height="1080">
<path d="M0 0 C356.4 0 712.8 0 1080 0 C1080 356.4 1080 712.8 1080 1080 C723.6 1080 367.2 1080 0 1080 C0 723.6 0 367.2 0 0 Z " fill="#FEFEFE" transform="translate(0,0)"/>
<path d="M0 0 C2.60338132 0.96285246 5.16653774 1.99481959 7.72949219 3.06054688 C13.74387686 5.46295099 19.66058544 7.75085277 25.91699219 9.43554688 C59.1264815 18.46413144 87.7333869 38.5954943 105.04003906 68.81738281 C114.32624969 85.55526953 123.44559486 103.2482354 126.60449219 122.31054688 C126.79785156 123.4475 126.79785156 123.4475 126.99511719 124.60742188 C127.30578077 126.84746981 127.48311449 129.05218614 127.60449219 131.31054688 C127.68376953 132.77621094 127.68376953 132.77621094 127.76464844 134.27148438 C128.52142913 162.50269468 119.27325931 192.81517064 100.60449219 214.31054688 C95.72000313 219.40168739 90.11807493 223.52268207 83.60449219 226.31054688 C82.61449219 226.31054688 81.62449219 226.31054688 80.60449219 226.31054688 C80.61609375 227.00277344 80.62769531 227.695 80.63964844 228.40820312 C80.82040323 248.00718692 77.49211904 266.11457452 73.01074219 285.13867188 C72.74543701 286.2655542 72.48013184 287.39243652 72.20678711 288.5534668 C71.70063592 290.6808664 71.18594352 292.8062628 70.66040039 294.92895508 C66.91186651 310.51855753 66.28137879 325.65302281 66.34375 341.61645508 C66.35439458 344.84345645 66.34383774 348.06989128 66.33105469 351.296875 C66.32299879 365.39509312 67.1297698 379.29078758 68.60449219 393.31054688 C69.26449219 393.31054688 69.92449219 393.31054688 70.60449219 393.31054688 C70.83394531 392.04597656 71.06339844 390.78140625 71.29980469 389.47851562 C72.56597921 383.79408185 74.91999664 378.82785195 77.47949219 373.62304688 C77.91390625 372.71232422 78.34832031 371.80160156 78.79589844 370.86328125 C80.62348717 367.08461805 82.44457479 363.54700836 84.79980469 360.06445312 C90.21131632 351.80662693 91.02173285 340.19111265 92.54199219 330.62304688 C98.92628649 290.52189449 113.54062134 245.90715034 147.41235352 220.58056641 C158.01992054 212.90273649 169.4978824 206.89975411 181.11523438 200.91479492 C200.18680441 191.07838813 217.16015918 179.93925202 233.47949219 165.96679688 C248.96098074 152.74063628 248.96098074 152.74063628 255.61230469 152.93554688 C260.19486446 153.79814636 262.19728689 157.71824826 264.66699219 161.31054688 C276.7499761 184.10678372 275.45342054 217.23684424 268.45605469 241.38867188 C256.55503228 279.48897064 227.10265946 319.48598699 191.64257812 338.35449219 C181.30978756 343.69597772 170.85390099 347.42157723 159.60449219 350.31054688 C158.93272949 350.49093506 158.2609668 350.67132324 157.56884766 350.85717773 C153.33296695 351.96966712 149.2203849 352.66533232 144.85449219 353.12304688 C124.05100535 355.82667463 96.61770124 361.82763768 82.91308594 379.18164062 C71.09030506 398.41571698 73.06695238 422.70957816 77.99707031 443.70703125 C78.62725392 446.40810762 79.22063141 449.11539937 79.80761719 451.82617188 C81.68394673 460.40763121 83.7017891 468.9230699 86.10449219 477.37304688 C93.48393792 503.37184707 98.30916703 528.72199327 98.07104492 555.83837891 C98.04195424 559.44024593 98.05052699 563.04064201 98.06347656 566.64257812 C98.04582179 585.27647926 95.92759748 603.08653088 92.36621094 621.34570312 C91.48237444 625.88504114 90.69068424 630.43879013 89.91699219 634.99804688 C89.78550781 635.75311523 89.65402344 636.50818359 89.51855469 637.28613281 C88.894516 640.99849197 88.44847896 644.54394173 88.60449219 648.31054688 C97.20296164 639.89391817 103.28597498 629.46315303 109.60449219 619.31054688 C110.12188461 618.57439148 110.63927704 617.83823608 111.17234802 617.07977295 C112.90966775 613.72045257 112.95856335 611.51259091 112.92578125 607.7421875 C112.92298157 606.42891479 112.92018188 605.11564209 112.91729736 603.76257324 C112.90925331 603.06385605 112.90120926 602.36513885 112.89292145 601.64524841 C112.86972425 599.4292599 112.86883099 597.21426252 112.87420654 594.99816895 C112.88679684 588.69856278 112.87081632 582.39947024 112.81396484 576.10009766 C112.66368164 557.81521286 112.83206071 541.28075047 120.60449219 524.31054688 C120.94695984 523.53945084 121.28942749 522.7683548 121.64227295 521.97389221 C125.57016422 513.17969512 130.11047746 505.49664133 136.60449219 498.31054688 C137.49399639 497.30159209 138.38330883 496.29246821 139.27246094 495.28320312 C144.82833754 489.04455149 150.70046738 483.44963457 157.08203125 478.06347656 C165.38426297 470.97937145 171.41382931 464.02095438 176.60449219 454.31054688 C178.43314712 450.91216781 180.26567321 447.51593826 182.10449219 444.12304688 C182.57266357 443.2581665 183.04083496 442.39328613 183.52319336 441.50219727 C187.66910208 433.95845383 192.1625822 426.04630778 199.60449219 421.31054688 C204.61542917 420.66397436 206.56500252 420.68293047 210.91699219 423.31054688 C217.01516235 429.22776547 217.70331457 439.10708371 219.10449219 447.06054688 C219.31807373 448.25558838 219.53165527 449.45062988 219.75170898 450.68188477 C220.37854711 454.22322395 220.99176198 457.76674467 221.60449219 461.31054688 C221.7754541 462.2623584 221.94641602 463.21416992 222.12255859 464.19482422 C225.21643522 481.48262291 226.34120442 498.22296818 221.60449219 515.31054688 C221.41113281 516.14070312 221.21777344 516.97085938 221.01855469 517.82617188 C212.96627356 549.4078459 184.56781651 574.10602372 157.79199219 590.06054688 C157.08518311 590.49302734 156.37837402 590.92550781 155.65014648 591.37109375 C151.590637 593.79182493 147.65308457 595.72181427 143.20214844 597.32226562 C120.26039859 606.37755388 109.59800965 628.5695676 97.2538147 648.64532471 C95.60891886 651.30339359 93.94048321 653.94490816 92.26147461 656.58154297 C91.72391541 657.42586884 91.1863562 658.2701947 90.63250732 659.1401062 C89.63217497 660.70903558 88.63047352 662.27709341 87.62701416 663.84402466 C84.3430104 669.01446741 81.33482078 674.30101052 78.41699219 679.68554688 C62.0300613 709.6612025 39.8730198 725.15102265 7.39355469 734.75976562 C-0.63940756 736.99722615 -8.80417451 738.52973085 -16.99316406 740.07226562 C-26.69916761 741.91109544 -36.29582131 744.22699094 -45.90917969 746.49267578 C-49.615968 747.36226548 -53.3256887 748.21841531 -57.03613281 749.07226562 C-77.0392667 753.68069795 -96.78868827 758.77325677 -116.47753906 764.57617188 C-120.05266546 765.62859003 -123.63076749 766.6657028 -127.21972656 767.66992188 C-140.89534894 771.49858527 -154.45549209 775.68386908 -168.01293945 779.90893555 C-182.83840036 784.51709371 -197.73854834 788.79170568 -212.83300781 792.43554688 C-213.78498047 792.67402344 -214.73695313 792.9125 -215.71777344 793.15820312 C-232.12652124 797.12892692 -248.0466851 798.82872022 -264.9206543 798.7565918 C-267.95917845 798.74804358 -270.99583746 798.77704879 -274.03417969 798.80859375 C-299.64068174 798.89967115 -322.74403371 793.09398407 -341.52050781 774.74804688 C-361.10158681 754.7690863 -371.38961284 727.3256726 -380.39550781 701.31054688 C-380.91902832 699.80814453 -380.91902832 699.80814453 -381.453125 698.27539062 C-384.95867482 688.15614452 -388.27044913 678.00236363 -391.14550781 667.68554688 C-393.87858399 657.89847659 -396.85119357 648.19200211 -399.89550781 638.49804688 C-400.27533813 637.28794952 -400.27533813 637.28794952 -400.6628418 636.05340576 C-404.44146188 624.06058764 -408.51025059 612.1915046 -412.73904419 600.35076904 C-426.58852351 561.53977488 -438.38789801 519.90169232 -436.39550781 478.31054688 C-436.35296875 477.38999512 -436.31042969 476.46944336 -436.26660156 475.52099609 C-434.87268804 448.3977621 -430.05305749 421.67051629 -425.31115723 394.9744873 C-423.56610331 385.14594177 -421.83292262 375.32442459 -420.45800781 365.43554688 C-420.34183105 364.62375977 -420.2256543 363.81197266 -420.10595703 362.97558594 C-419.38466279 357.49374971 -418.64051371 351.81477991 -419.39550781 346.31054688 C-420.98044362 344.1451545 -420.98044362 344.1451545 -423.52050781 343.18554688 C-424.42414063 342.73050781 -425.32777344 342.27546875 -426.25878906 341.80664062 C-427.29390625 341.31292969 -428.32902344 340.81921875 -429.39550781 340.31054688 C-431.85541807 338.99528676 -434.28080377 337.62245678 -436.70800781 336.24804688 C-437.85914063 335.61769531 -439.01027344 334.98734375 -440.19628906 334.33789062 C-443.47247222 332.26177456 -445.95848533 330.33207766 -448.39550781 327.31054688 C-448.20800781 324.99804688 -448.20800781 324.99804688 -447.39550781 323.31054688 C-437.27065418 324.21455166 -427.34992849 326.30422953 -417.39550781 328.31054688 C-417.54375 327.67761719 -417.69199219 327.0446875 -417.84472656 326.39257812 C-418.42740753 323.13204421 -418.72035571 319.92158966 -418.9909668 316.62329102 C-420.27881107 301.04602504 -422.63273442 285.59255931 -426.20800781 270.37304688 C-427.91539203 262.52856496 -427.73458624 257.2851404 -423.83300781 250.18554688 C-419.35867806 243.29701043 -414.3943769 238.5142875 -406.39550781 236.31054688 C-403.59354941 236.11320115 -400.89477694 236.00634888 -398.09472656 236.00976562 C-397.30008499 236.0054805 -396.50544342 236.00119537 -395.6867218 235.9967804 C-394.0049433 235.99105443 -392.32314005 235.99052403 -390.64135742 235.99487305 C-388.12860946 235.9979903 -385.61709115 235.97470351 -383.10449219 235.94921875 C-357.54167067 235.84939535 -332.70312782 241.62440662 -313.39550781 259.31054688 C-312.26048828 260.34115234 -312.26048828 260.34115234 -311.10253906 261.39257812 C-291.83558204 279.77291411 -282.64579671 299.26198554 -281.99658203 325.82714844 C-281.49071715 375.60681387 -304.50152342 419.34961597 -338.09399414 454.66845703 C-347.11822763 463.134465 -347.11822763 463.134465 -350.52050781 474.24804688 C-350.52308594 475.12332031 -350.52566406 475.99859375 -350.52832031 476.90039062 C-350.49372785 479.45513744 -350.49372785 479.45513744 -349.39550781 482.31054688 C-347.65824417 483.35548815 -347.65824417 483.35548815 -345.39550781 484.31054688 C-343.94337891 485.13425781 -343.94337891 485.13425781 -342.46191406 485.97460938 C-318.73963905 499.36549463 -292.92195898 505.29856248 -266.39550781 510.31054688 C-269.73859016 506.82131885 -273.14950498 503.92218841 -277.08300781 501.12304688 C-287.9638495 493.03593481 -296.75383535 483.78579442 -302.39550781 471.31054688 C-302.73777652 468.50394351 -302.73030842 466.93829802 -301.39550781 464.43554688 C-298.77507511 462.96155348 -296.69255952 462.98728532 -293.76269531 463.48632812 C-284.72875818 466.63180789 -277.28139257 474.93512992 -270.39550781 481.31054688 C-268.66790997 482.85397137 -266.93875385 484.3956535 -265.20800781 485.93554688 C-263.60044112 487.3901314 -261.99599323 488.84817441 -260.39550781 490.31054688 C-259.76773438 490.88289063 -259.13996094 491.45523437 -258.49316406 492.04492188 C-246.21075785 503.7424516 -246.21075785 503.7424516 -244.92285156 510.95898438 C-245.39550781 513.31054688 -245.39550781 513.31054688 -247.03613281 515.10351562 C-262.36140794 522.94376399 -295.14385406 511.40310164 -310.4987793 506.60986328 C-346.72979853 494.77777314 -346.72979853 494.77777314 -355.39550781 483.31054688 C-357.65607504 478.56410671 -358.29771125 474.4920088 -357.39550781 469.31054688 C-352.97455361 458.30327314 -342.34822956 448.66446962 -333.76269531 440.81835938 C-311.07363684 419.79237325 -296.29498218 385.33694164 -291.39550781 355.31054688 C-292.59661194 355.30246002 -293.79771606 355.29437317 -295.03521729 355.28604126 C-306.39243484 355.20832585 -317.74953633 355.12052378 -329.10660172 355.02301979 C-334.94441636 354.97321979 -340.78221432 354.92688904 -346.62011719 354.88867188 C-352.26121643 354.85161233 -357.90217033 354.80519793 -363.54314423 354.75248337 C-365.68791893 354.73404869 -367.83272466 354.7189011 -369.97754669 354.70720291 C-396.57101788 354.55705606 -396.57101788 354.55705606 -407.64550781 350.18554688 C-409.01449219 349.65574219 -409.01449219 349.65574219 -410.41113281 349.11523438 C-411.06597656 348.8496875 -411.72082031 348.58414062 -412.39550781 348.31054688 C-412.481875 349.38304687 -412.56824219 350.45554687 -412.65722656 351.56054688 C-414.45403324 372.16753273 -417.68693451 392.73516144 -421.93920898 412.97607422 C-423.37754599 419.92840239 -424.5029546 426.91938723 -425.58300781 433.93554688 C-425.75002197 435.01497559 -425.91703613 436.0944043 -426.08911133 437.20654297 C-427.70147391 447.88979358 -428.56385771 458.32176962 -428.63378906 469.13085938 C-428.64186081 470.34716034 -428.64993256 471.5634613 -428.6582489 472.81661987 C-428.67202228 475.38668423 -428.68277429 477.95676635 -428.69067383 480.52685547 C-428.70211891 483.10764074 -428.72244974 485.68840377 -428.75219727 488.26904297 C-429.28182714 534.36163647 -414.5187513 576.38022768 -399.39550781 619.31054688 C-394.8376131 618.46834027 -393.04695991 615.8602974 -390.27050781 612.37304688 C-358.73025753 574.29359813 -358.73025753 574.29359813 -339.39550781 572.31054688 C-335.28028988 572.11458412 -332.3487211 571.98604874 -328.45800781 573.31054688 C-320.87434088 575.78684628 -314.16949404 573.94484531 -306.89550781 571.31054688 C-299.44470448 568.61221353 -292.83470013 566.7069152 -285.12988281 569.49023438 C-278.20711047 573.422804 -271.96803037 577.80059607 -265.72363281 582.72070312 C-246.60162517 597.71079157 -224.38542746 608.441524 -201.57226562 616.53173828 C-198.46399193 617.64382813 -195.3970474 618.83123943 -192.33300781 620.06054688 C-191.45515625 620.40601563 -190.57730469 620.75148438 -189.67285156 621.10742188 C-187.07239119 622.48125 -185.36556771 624.14484592 -183.39550781 626.31054688 C-188.56227223 628.21409166 -193.53846064 629.5779488 -198.95800781 630.56054688 C-224.97348448 635.48113325 -250.97551421 645.15221054 -275.20410156 655.72851562 C-298.95393242 665.98117485 -325.67453015 666.36763435 -349.77050781 656.99804688 C-359.5856786 653.00586601 -368.94611352 648.04607295 -378.28369141 643.05932617 C-379.3802002 642.47449463 -380.47670898 641.88966309 -381.60644531 641.28710938 C-383.0651001 640.49941162 -383.0651001 640.49941162 -384.55322266 639.69580078 C-387.44677442 638.2855609 -390.32269372 637.25860926 -393.39550781 636.31054688 C-389.14637032 651.00255004 -384.81723169 665.66952028 -380.39550781 680.31054688 C-380.13517761 681.17411804 -379.87484741 682.03768921 -379.60662842 682.9274292 C-374.26840551 700.57388818 -368.2701046 717.58157136 -360.20800781 734.18554688 C-359.88383881 734.85524506 -359.5596698 735.52494324 -359.22567749 736.2149353 C-348.61378842 757.93479152 -335.88570986 777.3671562 -312.39550781 786.31054688 C-311.78658691 786.57287109 -311.17766602 786.83519531 -310.55029297 787.10546875 C-271.12795593 803.69023624 -220.5569992 788.88801781 -181.77050781 777.31054688 C-179.86299872 776.7451349 -177.95544565 776.17987125 -176.04785156 775.61474609 C-166.40546952 772.74989301 -156.78303705 769.82713996 -147.18457031 766.81835938 C-145.83079788 766.39402618 -145.83079788 766.39402618 -144.44967651 765.96112061 C-142.65217145 765.39745068 -140.85467583 764.83375063 -139.05718994 764.27001953 C-123.20064875 759.29878352 -107.37353483 754.83734866 -91.20068359 750.99853516 C-87.2131157 750.02055723 -83.27550223 748.8919102 -79.33300781 747.74804688 C-68.66452056 744.69331459 -57.80886052 742.44006045 -46.96826172 740.08984375 C-43.37225835 739.30547565 -39.77993148 738.50609435 -36.18847656 737.70117188 C-16.69947022 733.33407909 -16.69947022 733.33407909 -8.52050781 731.81054688 C18.23729324 726.48347893 46.51476412 716.80220964 62.61621094 693.38476562 C76.61908663 671.54027954 81.21825479 648.48142959 85.35449219 623.18554688 C85.75598896 620.78175942 86.1583278 618.37811246 86.56152344 615.97460938 C88.7993849 602.67414212 88.7993849 602.67414212 90.60449219 589.31054688 C90.71792969 588.38371094 90.83136719 587.456875 90.94824219 586.50195312 C91.52931227 576.725449 87.6208269 568.93565114 83.60449219 560.31054688 C82.77349088 558.46561735 81.94277396 556.6205597 81.11230469 554.77539062 C70.81049012 532.24657904 57.53908584 511.37386585 40.46777344 493.34960938 C38.60449219 491.31054688 38.60449219 491.31054688 37.60449219 489.31054688 C36.38947021 489.3812439 36.38947021 489.3812439 35.14990234 489.45336914 C11.93561519 490.60260728 -8.78777727 487.34162741 -31.32588196 481.95355225 C-38.03777752 480.35747647 -44.76940101 479.08410443 -51.58300781 477.99804688 C-66.3925469 475.53603459 -79.25995468 471.65831756 -92.39550781 464.31054688 C-93.24886719 463.83875 -94.10222656 463.36695313 -94.98144531 462.88085938 C-115.27100496 450.50203057 -128.67134987 426.81552573 -134.39550781 404.31054688 C-134.61980469 403.54355469 -134.84410156 402.7765625 -135.07519531 401.98632812 C-136.57438798 396.10251031 -136.63159954 390.16202891 -136.70800781 384.12304688 C-136.72573242 383.26702881 -136.74345703 382.41101074 -136.76171875 381.52905273 C-136.75548176 376.18239166 -136.43342473 370.34846379 -132.39550781 366.31054688 C-127.03137778 365.9244603 -123.30421949 366.82666146 -118.37988281 368.90820312 C-117.40609932 369.31286049 -117.40609932 369.31286049 -116.41264343 369.72569275 C-115.0316646 370.30086465 -113.65292852 370.88144717 -112.27633667 371.46704102 C-108.68709882 372.99314693 -105.08094577 374.47844324 -101.47753906 375.97070312 C-100.77166153 376.26441803 -100.065784 376.55813293 -99.33851624 376.86074829 C-93.87894371 379.1281883 -88.3869497 381.28380116 -82.83300781 383.31054688 C-82.17719727 383.55168213 -81.52138672 383.79281738 -80.84570312 384.04125977 C-78.70188588 384.81666593 -76.54997934 385.56522553 -74.39550781 386.31054688 C-73.33017822 386.68630859 -72.26484863 387.06207031 -71.16723633 387.44921875 C-61.38698464 390.81988365 -51.51291896 393.40043677 -41.45800781 395.81054688 C-29.94911596 398.57561468 -18.65215746 401.6386984 -7.39550781 405.31054688 C-6.7486351 405.51898727 -6.10176239 405.72742767 -5.43528748 405.94218445 C10.01472092 410.92460339 21.7559856 418.40784549 30.28027344 432.42773438 C34.55366976 441.73088035 35.68985799 451.62906657 37.06542969 461.67773438 C38.59040509 472.30256297 40.5277488 480.78239209 47.04199219 489.43554688 C47.56768799 490.15782471 48.09338379 490.88010254 48.63500977 491.62426758 C51.79888253 495.95147419 55.04136318 500.21994441 58.27661133 504.49389648 C71.72657295 522.2819962 81.68512783 541.3740369 91.60449219 561.31054688 C91.98370617 546.28978395 91.3736466 532.07835607 88.60449219 517.31054688 C88.34615749 515.8249605 88.08833914 514.33928424 87.83105469 512.85351562 C85.7215679 501.18796586 82.70286009 489.7593001 79.69955444 478.30007935 C76.82253277 467.30889632 74.18004077 456.29321508 71.79199219 445.18554688 C71.64693237 444.5134317 71.50187256 443.84131653 71.35241699 443.14883423 C70.22933278 437.94224688 69.11535484 432.73375003 68.01660156 427.52197266 C62.58172642 401.90986912 49.8147126 380.9966766 35.60449219 359.31054688 C34.9931543 358.37500977 34.38181641 357.43947266 33.75195312 356.47558594 C29.7600595 350.38091422 25.70664661 344.33145094 21.60449219 338.31054688 C21.15170898 337.63620605 20.69892578 336.96186523 20.23242188 336.26708984 C19.06407729 334.53719776 17.87223534 332.82735057 16.66699219 331.12304688 C16.03921875 330.22199219 15.41144531 329.3209375 14.76464844 328.39257812 C10.18624787 323.97976167 3.20346825 323.90281734 -2.87207031 323.38085938 C-4.51924104 323.22628732 -6.16637519 323.07132499 -7.81347656 322.91601562 C-8.66474121 322.83786621 -9.51600586 322.7597168 -10.39306641 322.67919922 C-25.22827358 321.30347568 -39.86813611 319.72251144 -54.39550781 316.31054688 C-55.06791504 316.16149902 -55.74032227 316.01245117 -56.43310547 315.85888672 C-85.85627123 309.28416108 -114.92500723 291.73848432 -131.52050781 266.24804688 C-141.69436081 249.20484037 -144.59668649 231.52590459 -144.58300781 211.93554688 C-144.58259995 210.94394562 -144.58259995 210.94394562 -144.58218384 209.93231201 C-144.55741917 196.77613074 -143.45461354 184.00460524 -141.66503906 170.98632812 C-139.82041434 157.34153052 -138.767168 143.77773941 -138.12988281 130.03100586 C-137.77907644 122.67496394 -137.28216938 115.35849224 -136.47363281 108.03710938 C-136.40027206 107.33147354 -136.32691132 106.62583771 -136.25132751 105.89881897 C-135.23922146 97.33195046 -131.45455445 92.73553604 -124.94628906 87.43945312 C-121.29817152 84.78377058 -117.74852129 84.99961734 -113.39550781 85.31054688 C-104.71740163 87.29927954 -99.03393834 91.93260078 -94.23144531 99.25585938 C-91.69938338 103.46877944 -89.32228118 107.76126438 -86.94042969 112.06030273 C-76.66447317 130.47283071 -64.785718 142.57906309 -47.58496094 154.75390625 C-16.00093827 177.20927294 8.35321518 207.49795625 15.60449219 246.31054688 C16.62289837 253.79692583 16.75428458 261.16002242 16.78027344 268.70898438 C16.8034657 271.3183675 16.82758279 273.92774253 16.85253906 276.53710938 C16.88883032 280.61393333 16.91869781 284.69060393 16.93041992 288.76757812 C16.94254134 292.72748977 16.9862024 296.68679644 17.03027344 300.64648438 C17.02741081 302.4548024 17.02741081 302.4548024 17.02449036 304.2996521 C17.26706781 321.23563208 25.96133309 334.19495811 35.22949219 347.81054688 C42.2238227 358.189283 48.98656259 368.68898106 55.60449219 379.31054688 C57.27064143 381.97753702 58.93749756 384.64408507 60.60449219 387.31054688 C60.59449944 385.97655602 60.59449944 385.97655602 60.58430481 384.61561584 C60.52373518 376.15915787 60.47828774 367.70277467 60.44905567 359.24614811 C60.43352108 354.9004127 60.41251156 350.55485925 60.37817383 346.20922852 C60.34513773 342.00111081 60.32754792 337.79316607 60.31986046 333.58492851 C60.31439508 331.99407675 60.30372786 330.40323248 60.28730202 328.81245613 C60.13588047 313.51379032 62.59003343 299.5765936 66.71386719 284.85522461 C71.98323579 265.86364172 72.53023782 247.92033177 71.60449219 228.31054688 C70.58331299 227.98151367 69.56213379 227.65248047 68.51000977 227.31347656 C67.15210296 226.87003054 65.79427852 226.42633225 64.43652344 225.98242188 C63.76560669 225.7669873 63.09468994 225.55155273 62.40344238 225.32958984 C45.16138902 219.66471979 33.40649765 206.64222935 25.04199219 190.93554688 C17.91275215 176.02450478 13.76876965 160.62791957 11.60449219 144.31054688 C7.26740321 112.36715561 1.75642763 82.67773866 -11.08300781 52.87304688 C-24.04965633 22.71135261 -24.04965633 22.71135261 -19.20800781 7.68554688 C-15.0062503 -0.13841538 -8.36047995 -2.40623679 0 0 Z " fill="#77856C" transform="translate(669.3955078125,148.689453125)"/>
<path d="M0 0 C0.97839844 0.44085938 1.95679688 0.88171875 2.96484375 1.3359375 C22.11565379 10.84265238 37.95485843 32.1464267 45 52.0625 C46.74674881 57.80008465 47.12679043 63.73783105 47.1328125 69.703125 C47.13410156 70.9303125 47.13539063 72.1575 47.13671875 73.421875 C47.13285156 74.68515625 47.12898437 75.9484375 47.125 77.25 C47.12886719 78.52875 47.13273438 79.8075 47.13671875 81.125 C47.13478516 82.95804688 47.13478516 82.95804688 47.1328125 84.828125 C47.13168457 85.9409082 47.13055664 87.05369141 47.12939453 88.20019531 C47 91 47 91 46 94 C40.40119338 94.520013 37.12241279 92.85410483 32.375 90.25 C17.13423678 82.32779526 2.55401925 80.28122188 -14.390625 79.484375 C-15.28452438 79.44220352 -16.17842377 79.40003204 -17.09941101 79.35658264 C-28.99801681 78.82837276 -40.90487423 78.6446259 -52.8125 78.4375 C-55.17383327 78.39415938 -57.53516145 78.35054109 -59.89648438 78.30664062 C-65.5976019 78.20123889 -71.29877163 78.09921544 -77 78 C-77.90160391 75.29518828 -78.31291735 73.04345049 -78.6484375 70.23046875 C-78.76509766 69.26995605 -78.88175781 68.30944336 -79.00195312 67.31982422 C-79.18661133 65.76932373 -79.18661133 65.76932373 -79.375 64.1875 C-79.64240833 62.00640962 -79.91065626 59.82542204 -80.1796875 57.64453125 C-80.31600586 56.53674316 -80.45232422 55.42895508 -80.59277344 54.28759766 C-82.5742297 37.67401814 -82.5742297 37.67401814 -85.6875 21.25 C-87.20892831 14.48449965 -88.53833874 8.26896982 -85.5 1.8125 C-65.39690645 -20.80348024 -24.59012176 -11.15484853 0 0 Z " fill="#FEFEFE" transform="translate(335,400)"/>
<path d="M0 0 C2.03617093 1.48495113 4.0696206 2.9735793 6.1027832 4.46264648 C7.22753052 5.28551147 7.22753052 5.28551147 8.375 6.125 C9.14481201 6.68840088 9.91462402 7.25180176 10.70776367 7.83227539 C27.68104259 20.12052013 46.60579971 31.017232 66 39 C66 39.66 66 40.32 66 41 C48.59630726 39.99494498 31.26084568 38.4926531 13.90847778 36.83685303 C-3.06886509 35.21837127 -20.03252859 33.63421925 -37.0625 32.6875 C-38.09531097 32.62876709 -38.09531097 32.62876709 -39.14898682 32.56884766 C-62.38414192 31.27482716 -86.08395495 30.862606 -107.31640625 41.69140625 C-110 43 -110 43 -113 43 C-104.7927479 24.87738749 -82.37360961 6.23368443 -64.7265625 -2.0078125 C-60.12141261 -3.68361203 -56.30603349 -4.00840109 -51.6953125 -1.9921875 C-44.69235401 0.58571316 -36.25482615 -0.122538 -29.4375 -2.9375 C-28.69371094 -3.29714844 -27.94992187 -3.65679688 -27.18359375 -4.02734375 C-17.01323369 -8.55761147 -8.60216224 -6.18771723 0 0 Z " fill="#FDFDFD" transform="translate(391,729)"/>
<path d="M0 0 C5.71693249 -0.07638768 11.43354415 -0.12960699 17.15087891 -0.16479492 C19.07996816 -0.179522 21.00902647 -0.19969929 22.93798828 -0.22631836 C34.74943366 -0.384757 46.25994307 0.13374094 58 1.46875 C75.74275112 3.44982636 93.45456523 3.5580003 111.29064941 3.66955566 C115.67693627 3.70001167 120.06305813 3.74630615 124.44921875 3.79101562 C132.96606224 3.87562238 141.48292321 3.94357724 150 4 C148.68161465 6.6367707 147.68656608 6.65276146 144.93359375 7.59375 C144.06726318 7.89700195 143.20093262 8.20025391 142.30834961 8.51269531 C140.88727905 9.00141113 140.88727905 9.00141113 139.4375 9.5 C130.97711363 12.47953041 122.68926729 15.73504445 114.4375 19.25 C100.66391051 25.08293969 88.14060296 29.45754569 73 29 C71.43765625 28.95746094 71.43765625 28.95746094 69.84375 28.9140625 C43.843571 27.6617603 22.41655921 15.21039539 0 3 C0 2.01 0 1.02 0 0 Z " fill="#FDFDFD" transform="translate(283,778)"/>
<path d="M0 0 C4.0374469 1.39172317 6.89815847 3.29288685 10.1875 6 C11.04730469 6.70125 11.90710938 7.4025 12.79296875 8.125 C15 10 15 10 17 12 C16.51681367 20.46582723 14.08443498 28.76982586 12.171875 37.00195312 C9.58034354 48.36531041 8.81843044 58.84074579 8.8125 70.5 C8.79413086 72.40072266 8.79413086 72.40072266 8.77539062 74.33984375 C8.7645973 81.25476776 9.26872279 87.31251745 11 94 C11.15019698 96.36580984 11.10096074 98.6274226 11 101 C5.86493419 98.7344456 2.42168092 94.79002272 -1.5 90.875 C-2.25925781 90.14023437 -3.01851562 89.40546875 -3.80078125 88.6484375 C-13.93834884 78.56413209 -16.16273166 68.60020587 -16.25 54.625 C-16.20428681 47.24160483 -15.68611691 40.21124576 -14 33 C-13.72027344 31.78699219 -13.44054687 30.57398438 -13.15234375 29.32421875 C-10.51678773 18.46402848 -6.88907112 8.85737715 0 0 Z " fill="#FDFDFD" transform="translate(616,309)"/>
<path d="M0 0 C6.11624566 0.48683121 10.76196222 1.86636587 16.25 4.5625 C16.99161377 4.92110107 17.73322754 5.27970215 18.49731445 5.64916992 C27.93751387 10.31973488 36.2564225 16.32490721 44.5625 22.75 C45.15893311 23.20995361 45.75536621 23.66990723 46.36987305 24.14379883 C53.70419779 29.9392769 53.70419779 29.9392769 54.37231445 34.59375 C54.3693335 35.5528125 54.36635254 36.511875 54.36328125 37.5 C54.36263672 38.551875 54.36199219 39.60375 54.36132812 40.6875 C54.34521484 41.780625 54.32910156 42.87375 54.3125 44 C54.31572266 45.093125 54.31894531 46.18625 54.32226562 47.3125 C54.26249049 56.18095659 54.26249049 56.18095659 52 60 C37.75065697 58.56963393 25.42695815 49.33317248 16.25 38.8125 C8.98355734 29.48999887 0 12.29986395 0 0 Z " fill="#FDFDFD" transform="translate(691,309)"/>
<path d="M0 0 C1.22912109 0.01482422 2.45824219 0.02964844 3.72460938 0.04492188 C15.12386161 0.2795239 25.9777877 1.56904796 36.6875 5.5625 C35.26168845 10.00195869 32.84240114 12.98413351 29.6875 16.3125 C29.20055664 16.83038086 28.71361328 17.34826172 28.21191406 17.88183594 C26.71637599 19.45481288 25.20523291 21.01095128 23.6875 22.5625 C22.79546875 23.4803125 21.9034375 24.398125 20.984375 25.34375 C20.14390625 26.1584375 19.3034375 26.973125 18.4375 27.8125 C17.68984375 28.53953125 16.9421875 29.2665625 16.171875 30.015625 C12.76727488 32.13547036 10.65303497 31.96157396 6.6875 31.5625 C4.05420285 30.90417571 1.51984457 30.1889152 -1.0625 29.375 C-13.25467309 25.73899254 -25.79311826 23.72990577 -38.3125 21.5625 C-38.3125 20.5725 -38.3125 19.5825 -38.3125 18.5625 C-36.2302009 16.67822934 -34.17478144 14.99393512 -31.9375 13.3125 C-31.35355469 12.86003906 -30.76960937 12.40757812 -30.16796875 11.94140625 C-28.92231368 10.98506462 -27.66356156 10.04561349 -26.39428711 9.12084961 C-24.92451654 8.02063317 -23.4984092 6.86090896 -22.10766602 5.66235352 C-14.95484854 -0.12704307 -8.9919841 -0.35967936 0 0 Z " fill="#FDFDFD" transform="translate(858.3125,441.4375)"/>
<path d="M0 0 C5.50825777 0.32401516 8.65561842 1.65471393 13 5 C15.89900427 8.72430638 18.26752317 12.77046812 20.68798828 16.81689453 C22.12229377 19.20348919 23.59098251 21.56735145 25.05859375 23.93359375 C26.08269012 25.62120742 27.10484758 27.30999931 28.125 29 C28.62281982 29.80058838 29.12063965 30.60117676 29.63354492 31.42602539 C30.08705322 32.19293701 30.54056152 32.95984863 31.0078125 33.75 C31.41660645 34.42546875 31.82540039 35.1009375 32.24658203 35.796875 C33.86938039 40.54221926 31.63157342 45.4731271 30.109375 50.04296875 C29.73184082 51.19112061 29.35430664 52.33927246 28.96533203 53.5222168 C28.56427246 54.73176025 28.16321289 55.94130371 27.75 57.1875 C24.66470148 66.5745421 21.76428372 75.93448472 19.58496094 85.5769043 C19.14722004 87.40864646 18.58592674 89.21014349 18 91 C16.515 91.495 16.515 91.495 15 92 C14.36433812 90.0868429 13.74220465 88.16919111 13.125 86.25 C12.77695312 85.18265625 12.42890625 84.1153125 12.0703125 83.015625 C9.4298329 73.83980733 8.73214805 64.42265293 8.1875 54.9375 C7.01736451 37.48202608 3.65922918 20.45937899 -0.53149414 3.49536133 C-0.68610107 2.67189209 -0.84070801 1.84842285 -1 1 C-0.67 0.67 -0.34 0.34 0 0 Z " fill="#FCFDFC" transform="translate(552,241)"/>
<path d="M0 0 C4.22667388 1.39880978 6.83487298 3.39943995 10.0625 6.4375 C12.9464342 9.13480055 15.79095991 11.69512363 19 14 C18.45800139 18.76388256 17.06901847 22.07576675 14.75 26.25 C11.83114763 31.77351749 9.78385282 37.29194341 8.125 43.3125 C7.92229492 44.04049805 7.71958984 44.76849609 7.51074219 45.51855469 C5.13322843 54.58924191 4.79672388 63.72856791 4.4375 73.0625 C4.39431641 74.11888672 4.35113281 75.17527344 4.30664062 76.26367188 C4.20162663 78.84234879 4.09947123 81.42110435 4 84 C1 84 1 84 -0.54296875 82.7421875 C-7.52769082 74.81179048 -14.44030067 65.97635024 -14.6875 55.0625 C-14.20430108 47.56458567 -12.77634584 40.28761636 -11 33 C-10.81775879 32.23961426 -10.63551758 31.47922852 -10.44775391 30.69580078 C-3.96729612 3.96729612 -3.96729612 3.96729612 0 0 Z " fill="#FDFDFC" transform="translate(590,289)"/>
<path d="M0 0 C23.16010113 -0.86251411 44.65322356 4.79229871 66.5 12 C67.15674713 12.21528351 67.81349426 12.43056702 68.49014282 12.65237427 C75.60688033 14.99532808 82.41474438 17.40804239 89 21 C89 21.66 89 22.32 89 23 C87.36925537 23.01401855 87.36925537 23.01401855 85.70556641 23.02832031 C81.57872054 23.06891997 77.45256699 23.13485063 73.32617188 23.20751953 C71.5577093 23.23533158 69.7891316 23.25673835 68.02050781 23.27099609 C53.31337017 23.39648362 39.9832475 25.30035366 26 30 C22.67725447 30.46317059 21.46866805 30.30727243 18.640625 28.453125 C0.29767442 11.54883721 0.29767442 11.54883721 -0.125 2.25 C-0.063125 1.13625 -0.063125 1.13625 0 0 Z " fill="#FDFDFD" transform="translate(542,403)"/>
<path d="M0 0 C8.00069233 2.86884513 12.84123493 16.34736061 16.3828125 23.5625 C17.2156106 26.85152541 16.59756664 28.0161152 15 31 C13.46048109 33.50285245 11.82766842 35.93729463 10.1875 38.375 C5.54666545 45.40668607 1.26336974 52.5995436 -2.875 59.9375 C-3.40971924 60.88351074 -3.94443848 61.82952148 -4.49536133 62.80419922 C-7.8431534 68.78483293 -10.99224546 74.84154317 -14 81 C-14.99 80.67 -15.98 80.34 -17 80 C-24.8506365 59.80889809 -15.96128097 32.54919682 -8.02685547 13.68652344 C-3.31719471 3.31719471 -3.31719471 3.31719471 0 0 Z " fill="#FDFDFC" transform="translate(761,213)"/>
<path d="M0 0 C4.49873994 0.49542074 6.56992233 2.03433631 9.8125 5.125 C10.68390625 5.94355469 11.5553125 6.76210938 12.453125 7.60546875 C13.71382812 8.79076172 13.71382812 8.79076172 15 10 C16.34913103 11.15175816 17.70288214 12.29814024 19.0625 13.4375 C28.87552352 22.094898 35.77116533 32.24050929 42.81420898 43.16577148 C43.86194269 44.78644749 44.92950958 46.39426437 46 48 C46 48.99 46 49.98 46 51 C40.3169812 50.61221754 34.87512652 49.79449111 29.3125 48.5625 C21.45399453 46.90043416 13.60164874 46.25968206 5.59301758 45.73461914 C4.63806396 45.66621826 3.68311035 45.59781738 2.69921875 45.52734375 C1.84158936 45.47312256 0.98395996 45.41890137 0.1003418 45.36303711 C-2 45 -2 45 -4 43 C-4.23384988 40.02069184 -4.33076748 37.16819097 -4.3125 34.1875 C-4.31048584 33.30980957 -4.30847168 32.43211914 -4.30639648 31.52783203 C-3.95736223 7.91472447 -3.95736223 7.91472447 0 0 Z " fill="#FCFCFC" transform="translate(535,323)"/>
<path d="M0 0 C23.55317742 -0.81425837 49.42188271 2.26111989 67.74609375 18.421875 C72.42566213 22.90448041 76.19924073 27.14386698 79 33 C74.96576521 32.38386096 71.10319346 31.54602124 67.17578125 30.44140625 C53.76568994 26.75458767 40.89766286 23.73579092 27 23 C26.0296582 22.94650391 25.05931641 22.89300781 24.05957031 22.83789062 C17.70836736 22.49931913 11.35629859 22.22220399 5 22 C4.15820605 19.27318889 3.32636931 16.54398557 2.5 13.8125 C2.26152344 13.04357422 2.02304687 12.27464844 1.77734375 11.48242188 C0.59786383 7.55643872 -0.3326262 4.14951179 0 0 Z " fill="#FCFDFC" transform="translate(532,375)"/>
<path d="M0 0 C1.828125 0.4765625 1.828125 0.4765625 4 2 C5.1358027 4.83950676 5.99575241 7.43432877 6.75 10.375 C6.96027832 11.18775391 7.17055664 12.00050781 7.38720703 12.83789062 C10.64337085 26.11483947 10.64337085 26.11483947 9 32 C6.44584736 35.83964925 3.34273002 38.84627733 0 42 C-1.10066362 43.23476747 -2.18526602 44.4841198 -3.25 45.75 C-7.13157075 50.21199254 -11.17992666 54.51696403 -15.21704102 58.83764648 C-18.81526741 62.69666705 -22.33084576 66.60801686 -25.73046875 70.64453125 C-27 72 -27 72 -29 73 C-33.79332437 56.52294748 -27.11072469 44.5503467 -19.3125 30.125 C-6.09652978 6.09652978 -6.09652978 6.09652978 0 0 Z " fill="#FCFCFC" transform="translate(780,250)"/>
<path d="M0 0 C0.65576523 -0.00175232 1.31153046 -0.00350464 1.98716736 -0.00531006 C4.15813843 -0.00971484 6.32902807 -0.00679269 8.5 -0.00341797 C10.01635758 -0.00409205 11.53271505 -0.00506295 13.04907227 -0.00631714 C16.23340886 -0.00779279 19.41771744 -0.00564621 22.60205078 -0.00097656 C26.6555712 0.00468182 30.70902483 0.00146579 34.76254272 -0.00454903 C37.89923591 -0.00819156 41.03591373 -0.00699857 44.17260742 -0.00442123 C45.66512053 -0.0037601 47.15763508 -0.0045515 48.65014648 -0.00690079 C71.059027 -0.03440067 71.059027 -0.03440067 79.7890625 2.90673828 C80.83191406 3.25542969 81.87476563 3.60412109 82.94921875 3.96337891 C83.99722656 4.32753906 85.04523438 4.69169922 86.125 5.06689453 C87.21167969 5.4271875 88.29835938 5.78748047 89.41796875 6.15869141 C97.36481695 8.85902844 97.36481695 8.85902844 98.5 11.12939453 C82.57806975 15.39419728 65.36778349 14.31576199 49.02636719 14.31469727 C45.24402845 14.31689801 41.46197547 14.33515611 37.6796875 14.35400391 C35.23958431 14.35693639 32.79947977 14.35892215 30.359375 14.35986328 C28.69016998 14.37064156 28.69016998 14.37064156 26.98724365 14.38163757 C17.33505622 14.35384808 7.59272313 13.81978935 -1.0625 9.19189453 C-2.03316406 8.68787109 -3.00382812 8.18384766 -4.00390625 7.66455078 C-6.21770972 6.30300968 -7.87089943 5.1424582 -9.5 3.12939453 C-9.5 2.46939453 -9.5 1.80939453 -9.5 1.12939453 C-6.12143321 0.0032056 -3.56180624 0.00238946 0 0 Z " fill="#FCFCFC" transform="translate(267.5,483.87060546875)"/>
<path d="M0 0 C-1.16897003 16.07333788 -6.23396709 30.50624715 -13 45 C-13.50660156 46.08667969 -14.01320313 47.17335938 -14.53515625 48.29296875 C-18.88659698 56.88676116 -25.1569295 64.36240588 -33 70 C-34.32221514 70.37501467 -35.6551705 70.71658773 -37 71 C-37.2507871 66.53869033 -37.43024019 62.08130082 -37.54931641 57.61499023 C-37.59903102 56.10254353 -37.66684001 54.59056255 -37.75439453 53.07983398 C-38.36942639 42.1792988 -36.89894881 36.04039094 -29.62329102 27.75390625 C-28.32476196 26.39072266 -28.32476196 26.39072266 -27 25 C-25.43568064 23.23077365 -23.8728644 21.4602154 -22.3125 19.6875 C-21.57773437 18.89085937 -20.84296875 18.09421875 -20.0859375 17.2734375 C-18.1477745 15.1610576 -16.28976729 13.00001928 -14.4375 10.8125 C-4.99032587 0 -4.99032587 0 0 0 Z " fill="#FCFDFC" transform="translate(790,295)"/>
<path d="M0 0 C4.54822201 2.40490403 7.77351595 5.5367133 11.3125 9.1875 C11.86228516 9.74630859 12.41207031 10.30511719 12.97851562 10.88085938 C14.32363696 12.24937412 15.66246643 13.62406833 17 15 C15.64332618 18.58106796 14.03559004 21.98705897 12.33496094 25.41625977 C4.74591194 40.88248068 -0.18269731 57.23706208 -4 74 C-7 73 -7 73 -8.7890625 69.7265625 C-9.41170546 68.36419841 -10.02327411 66.99673106 -10.625 65.625 C-10.93695312 64.93921875 -11.24890625 64.2534375 -11.5703125 63.546875 C-18.23923197 48.77176894 -14.80255367 33.04359116 -9.31640625 18.35546875 C-6.7350023 11.78753124 -4.09435735 5.77340301 0 0 Z " fill="#FCFCFC" transform="translate(740,189)"/>
<path d="M0 0 C0 0.99 0 1.98 0 3 C-22.05737215 13.17806933 -38.26763535 17.88850431 -62 10 C-63.67601741 9.3572031 -65.34822154 8.70274471 -67 8 C-66.55310973 3.62250664 -63.9225614 1.74954306 -60.75 -1.0625 C-59.79609375 -1.91972656 -58.8421875 -2.77695312 -57.859375 -3.66015625 C-42.41376256 -16.29939375 -16.92692459 -5.69678566 0 0 Z " fill="#FCFCFC" transform="translate(858,478)"/>
<path d="M0 0 C3.22521386 0.16707189 4.22541999 1.21893063 6.578125 3.50390625 C7.47751191 4.51571653 8.36793154 5.53555692 9.25 6.5625 C9.70890625 7.08263672 10.1678125 7.60277344 10.640625 8.13867188 C11.7682143 9.41895555 12.88517315 10.70858798 14 12 C13.5875 13.216875 13.175 14.43375 12.75 15.6875 C12.47800781 16.51636719 12.20601562 17.34523438 11.92578125 18.19921875 C11.29617277 20.10398364 10.64694513 22.00235119 9.98046875 23.89453125 C4.67172038 39.70147863 4.57184257 56.54448672 3.875 73.0625 C3.78832405 75.00848873 3.70108756 76.95445257 3.61328125 78.90039062 C3.40241593 83.59999974 3.19905201 88.29987633 3 93 C2.34 93 1.68 93 1 93 C0.05519215 90.87800437 -0.88078681 88.75274219 -1.8125 86.625 C-2.33457031 85.44164062 -2.85664062 84.25828125 -3.39453125 83.0390625 C-7.05646741 74.07831369 -8.49743021 66.26794163 -8.375 56.5625 C-8.36629883 55.39887939 -8.35759766 54.23525879 -8.34863281 53.03637695 C-7.60470093 7.60470093 -7.60470093 7.60470093 0 0 Z " fill="#FCFCFC" transform="translate(639,329)"/>
<path d="M0 0 C-0.66231514 22.08820979 -0.66231514 22.08820979 -6.59375 28.8046875 C-10.15554906 30.57402275 -13.78351413 30.67286269 -17.6875 30.9375 C-25.16031953 31.56540738 -32.22906675 32.76911017 -39.47924805 34.67944336 C-43.07640668 35.61584797 -46.27749677 36.21558899 -50 36 C-47.19537911 25.36931125 -38.26544695 13.38099285 -29.21875 7.21875 C-25.27708791 5.05361167 -21.26210277 3.41832517 -17 2 C-15.2675 1.38125 -15.2675 1.38125 -13.5 0.75 C-8.95661412 -0.22358269 -4.6264767 -0.16755851 0 0 Z " fill="#FCFCFC" transform="translate(935,365)"/>
<path d="M0 0 C3.31840967 3.5494967 3.87931962 7.35737643 4.5625 12 C4.74582886 13.17900879 4.74582886 13.17900879 4.93286133 14.38183594 C6.30960869 23.55533052 7.28179006 32.75353756 8 42 C8.06413086 42.69738281 8.12826172 43.39476562 8.19433594 44.11328125 C8.74322044 50.4021952 9.16855069 55.44836226 5 60.5 C3.078125 62.31640625 3.078125 62.31640625 1 64 C0.29359375 64.58652344 -0.4128125 65.17304688 -1.140625 65.77734375 C-4.07734221 68.08864896 -6.43323385 69.81107795 -10 71 C-11.64525176 69.35474824 -11.32207368 67.34999605 -11.5 65.08203125 C-11.5825 64.07462891 -11.665 63.06722656 -11.75 62.02929688 C-11.8325 60.96775391 -11.915 59.90621094 -12 58.8125 C-12.51732408 51.37883859 -12.51732408 51.37883859 -13.5625 44.01171875 C-15.0409576 33.83412222 -13.6283246 26.37359579 -9.25 17.125 C-8.8065625 16.13242187 -8.363125 15.13984375 -7.90625 14.1171875 C-5.62737919 9.10367171 -3.23500722 4.45947257 0 0 Z " fill="#FCFCFC" transform="translate(793,408)"/>
<path d="M0 0 C0.99 0.33 1.98 0.66 3 1 C4.04544171 3.28212275 4.8010307 5.35517075 5.5 7.75 C5.71503174 8.48226807 5.93006348 9.21453613 6.15161133 9.96899414 C9.08948662 20.94597459 9.71893786 32.36865363 10.70458984 43.64990234 C11.09011248 48.02192018 11.52416474 52.38694917 12 56.75 C12.07484619 57.43940674 12.14969238 58.12881348 12.22680664 58.83911133 C13.11813323 66.61939796 14.53977166 74.30946409 16 82 C11.18225 81.22650803 8.24848053 78.21793089 4.6171875 75.15234375 C2.10377324 72.999345 2.10377324 72.999345 -0.4296875 71.44140625 C-2.87294531 69.76764423 -4.39668386 68.50327016 -6 66 C-6.87140147 60.28747924 -6.46793821 54.74211715 -5.75317383 49.02612305 C-4.70995709 40.63061918 -4.65982538 32.19851134 -4.48242188 23.74804688 C-3.99137755 5.98706633 -3.99137755 5.98706633 0 0 Z " fill="#FBFCFB" transform="translate(543,248)"/>
<path d="M0 0 C2.44607217 7.95820709 3.78479491 15.72698269 4.625 24 C4.81219604 25.76742554 4.81219604 25.76742554 5.00317383 27.57055664 C5.94038821 36.71446048 6.63506952 45.84101224 6.91503906 55.02832031 C6.99546771 56.8948195 7.16317353 58.75696154 7.3359375 60.6171875 C7.85593739 67.95097906 7.85593739 67.95097906 5.3203125 71.05859375 C2.14076687 73.58010155 0.11730845 75 -4 75 C-4.05945801 74.2879541 -4.11891602 73.5759082 -4.18017578 72.84228516 C-5.82493418 53.90181689 -8.41454849 35.25122968 -14.24609375 17.08203125 C-15.05322858 13.78239715 -15.26152181 12.14588703 -14 9 C-11.78515625 6.796875 -11.78515625 6.796875 -9.0625 4.75 C-8.16660156 4.06421875 -7.27070312 3.3784375 -6.34765625 2.671875 C-2.59579439 0 -2.59579439 0 0 0 Z " fill="#FCFDFC" transform="translate(830,370)"/>
<path d="M0 0 C4.86819639 4.29546741 7.86760059 9.35065796 11 15 C11.40863281 15.65871094 11.81726563 16.31742187 12.23828125 16.99609375 C13.72436059 20.90562556 11.79387744 24.80253094 10.22265625 28.4765625 C9.87396484 29.31316406 9.52527344 30.14976562 9.16601562 31.01171875 C8.43932579 32.73262316 7.70767554 34.45144267 6.97070312 36.16796875 C2.1024578 47.91272268 1.72664526 59.15712313 1.875 71.6875 C1.88505708 73.1790304 1.89417808 74.67056742 1.90234375 76.16210938 C1.92412456 79.77487974 1.9585015 83.38739593 2 87 C-1.8046875 86.1875 -1.8046875 86.1875 -3.5625 84.5 C-14.55189665 65.38800582 -9.0340236 36.73360575 -5.0625 16.25 C-4.90491211 15.42830322 -4.74732422 14.60660645 -4.58496094 13.76000977 C-3.57400802 8.84452978 -2.13262067 4.54473008 0 0 Z " fill="#FCFCFC" transform="translate(657,349)"/>
<path d="M0 0 C4.86959547 1.48435569 9.2952196 3.44067812 13.8125 5.75 C14.8324707 6.23339844 14.8324707 6.23339844 15.87304688 6.7265625 C19.07333277 8.3729708 20.76978551 9.4334995 22.14453125 12.81640625 C21.96418171 16.78897043 20.63339801 19.70539764 18.875 23.1875 C15.2857419 30.77567928 13.10598405 38.38752558 11.140625 46.52734375 C10.02485721 51.11112068 8.55669675 55.54919063 7 60 C-0.9061871 52.94853583 -3.0545571 43.23568661 -4 33 C-4.60758032 21.82494507 -5.1312128 10.26242559 0 0 Z " fill="#FDFDFD" transform="translate(711,171)"/>
<path d="M0 0 C2.3541894 0.01064259 4.7076025 0.00009773 7.06176758 -0.01269531 C22.6620285 -0.02803772 38.80811049 0.35258049 51.6887207 10.26074219 C52.1837207 11.25074219 52.1837207 11.25074219 52.6887207 12.26074219 C51.21786011 12.27476074 51.21786011 12.27476074 49.71728516 12.2890625 C24.57071421 12.4849086 24.57071421 12.4849086 -0.2019043 16.42089844 C-7.45575533 18.04784329 -12.80652016 17.56220919 -19.5612793 14.07324219 C-20.1594043 13.78126953 -20.7575293 13.48929687 -21.3737793 13.18847656 C-25.33406516 11.15138262 -27.77332132 8.89806315 -30.3112793 5.26074219 C-21.68896562 -1.06228784 -10.18701619 -0.05461644 0 0 Z " fill="#FCFCFC" transform="translate(603.311279296875,432.7392578125)"/>
<path d="M0 0 C1.5312854 0.00628418 1.5312854 0.00628418 3.09350586 0.01269531 C16.33658352 0.19531826 29.51480565 1.43112818 42.69839478 2.60894775 C49.51766687 3.2169426 56.34013046 3.77904743 63.1640625 4.33203125 C66.35445633 4.5932804 69.54478318 4.85532919 72.7350769 5.11779785 C74.80991944 5.2877555 76.88488988 5.45615963 78.95999146 5.6229248 C81.88397912 5.85887777 84.80724738 6.10241445 87.73046875 6.34765625 C88.58947784 6.41531693 89.44848694 6.4829776 90.33352661 6.5526886 C96.22195867 7.05653654 101.91640175 8.04492779 107.6875 9.3125 C107.6875 9.6425 107.6875 9.9725 107.6875 10.3125 C73.84652263 14.05404932 40.15571474 12.67950782 6.3125 9.875 C5.61642765 9.81737865 4.9203553 9.75975731 4.20318985 9.70038986 C-0.45668683 9.3128168 -5.11533538 8.91234062 -9.7734375 8.50390625 C-11.56433052 8.34754196 -11.56433052 8.34754196 -13.3914032 8.1880188 C-14.49506729 8.08802582 -15.59873138 7.98803284 -16.73583984 7.88500977 C-17.69646332 7.79840591 -18.65708679 7.71180206 -19.64682007 7.62257385 C-22.24317891 7.32056348 -24.7584834 6.86357765 -27.3125 6.3125 C-27.3125 5.6525 -27.3125 4.9925 -27.3125 4.3125 C-18.23060536 1.54844511 -9.51365233 -0.05667353 0 0 Z " fill="#F8F9F7" transform="translate(328.3125,764.6875)"/>
<path d="M0 0 C5.56231544 0.51681356 9.54895014 2.60296262 14.3125 5.3125 C15.09359131 5.75182861 15.87468262 6.19115723 16.67944336 6.64379883 C24.54678359 11.16121563 31.92556516 16.29461015 39.21289062 21.68701172 C40.7649991 22.82734497 42.34147388 23.93436884 43.921875 25.03515625 C49.58620654 29.09829603 52.93612944 33.15755467 54.453125 40.0625 C54.70392421 41.69929485 54.86248517 43.34982204 55 45 C49.37327143 43.39889838 44.54496095 40.71456051 39.4375 37.9375 C29.54423365 32.64371157 19.42944313 28.1239618 9.04858398 23.87866211 C3.19241536 21.36688153 3.19241536 21.36688153 1.953125 19.00390625 C0.09558952 12.55413027 -0.34371841 6.69614393 0 0 Z " fill="#FCFCFB" transform="translate(685,260)"/>
<path d="M0 0 C3.38094867 0.60144747 6.43305755 1.44633408 9.625 2.70703125 C10.49092773 3.04468506 11.35685547 3.38233887 12.24902344 3.73022461 C13.1568457 4.08737549 14.06466797 4.44452637 15 4.8125 C22.20268358 7.61042719 29.36463463 10.18373528 36.796875 12.30859375 C39 13 39 13 40 14 C40.25891166 17.1574168 40.18970466 20.33328862 40.1875 23.5 C40.18814453 24.43803467 40.18878906 25.37606934 40.18945312 26.3425293 C40.12505848 34.99848691 39.25584151 43.44457969 38 52 C33.90898183 48.99600281 30.86302136 45.57471302 27.8125 41.5625 C27.33546631 40.94415283 26.85843262 40.32580566 26.36694336 39.6887207 C25.38220717 38.4111855 24.39986579 37.13180079 23.41992188 35.85058594 C22.11871627 34.15472307 20.8050274 32.46979739 19.484375 30.7890625 C14.6512251 24.59951246 9.96744325 18.30726963 5.375 11.9375 C4.84140869 11.21071045 4.30781738 10.4839209 3.75805664 9.73510742 C3.26813232 9.04779541 2.77820801 8.3604834 2.2734375 7.65234375 C1.83435059 7.04382568 1.39526367 6.43530762 0.94287109 5.80834961 C0 4 0 4 0 0 Z " fill="#FCFCFC" transform="translate(662,154)"/>
<path d="M0 0 C2.51139046 3.76708569 2.7098288 7.16921053 3.125 11.5625 C3.2077417 12.43221436 3.2904834 13.30192871 3.37573242 14.19799805 C7.06231155 57.44047244 7.06231155 57.44047244 -3 70 C-5.13378906 70.66699219 -5.13378906 70.66699219 -7 71 C-7.55356215 65.27511328 -8.10480925 59.5500097 -8.65405273 53.82470703 C-8.84061465 51.88324182 -9.02777317 49.94183383 -9.21557617 48.00048828 C-10.18568201 37.96830044 -11.13901885 27.94366208 -11.79882812 17.88549805 C-11.94136423 15.84103899 -12.11391765 13.79857144 -12.30737305 11.75830078 C-12.56075971 8.95674147 -12.65751829 6.73732793 -12 4 C-8.70805186 0.34836156 -4.8079892 -2.0605668 0 0 Z " fill="#FCFCFC" transform="translate(851,360)"/>
<path d="M0 0 C8.9568106 10.47921467 9.29284083 30.91914391 11 44 C11.13696289 45.01723145 11.27392578 46.03446289 11.41503906 47.08251953 C13.40924406 62.9919017 13.40924406 62.9919017 10.15234375 67.6328125 C6.71211785 70.0381737 4.20001515 71 0 71 C-0.80143793 68.1035752 -1.20679563 65.35422021 -1.4296875 62.359375 C-1.5011499 61.46154297 -1.5726123 60.56371094 -1.64624023 59.63867188 C-1.75947632 58.2087793 -1.75947632 58.2087793 -1.875 56.75 C-2.79353415 45.97112083 -4.53687764 35.64624154 -6.859375 25.08203125 C-7.13265625 23.83808594 -7.4059375 22.59414063 -7.6875 21.3125 C-7.93886719 20.21550781 -8.19023438 19.11851562 -8.44921875 17.98828125 C-9.41202421 12.76454952 -9.41202421 12.76454952 -9 10 C-7.03125 7.32421875 -7.03125 7.32421875 -4.5 4.6875 C-3.6646875 3.80449219 -2.829375 2.92148437 -1.96875 2.01171875 C-1.3190625 1.34785156 -0.669375 0.68398438 0 0 Z " fill="#FCFCFC" transform="translate(808,387)"/>
<path d="M0 0 C0.66 0 1.32 0 2 0 C7.6525919 15.41615974 8.18151079 31.56266099 8.13037109 47.84082031 C8.12494996 49.89395335 8.13038795 51.946873 8.13671875 54 C8.13542969 55.31742187 8.13414062 56.63484375 8.1328125 57.9921875 C8.13168457 59.17151855 8.13055664 60.35084961 8.12939453 61.56591797 C7.99607069 65.10428229 7.56106408 68.50602495 7 72 C1.39606915 70.28768779 -0.7677201 67.13279214 -3.625 62.1875 C-7.05424589 54.23788452 -7.32154734 46.93107493 -7.25 38.375 C-7.24323242 37.21871094 -7.23646484 36.06242187 -7.22949219 34.87109375 C-6.89115206 6.89115206 -6.89115206 6.89115206 0 0 Z " fill="#FAFAF9" transform="translate(672,382)"/>
<path d="M0 0 C2.86138361 1.42577534 5.4382401 3.09230646 8 5 C6.79850786 8.60447641 6.12288123 8.77576133 2.87109375 10.48828125 C2.00798584 10.94477051 1.14487793 11.40125977 0.25561523 11.87158203 C-0.67436279 12.34708496 -1.60434082 12.82258789 -2.5625 13.3125 C-3.97776978 14.04509033 -3.97776978 14.04509033 -5.42163086 14.79248047 C-33.19882695 28.90979877 -33.19882695 28.90979877 -47.625 25.0234375 C-58.13599002 21.45408047 -58.13599002 21.45408047 -62 17 C-61.37770508 16.88519287 -60.75541016 16.77038574 -60.11425781 16.65209961 C-43.64438191 13.55908714 -27.14118802 10.05123765 -12.25 2.0625 C-7.77690969 -0.29960559 -5.05171068 -0.81479205 0 0 Z " fill="#FBFBFB" transform="translate(648,591)"/>
<path d="M0 0 C4.18268086 1.53553374 5.79525012 4.19474799 8.25 7.8125 C13.33575893 15.17733376 18.73728314 22.27583972 24.20214844 29.36254883 C27.52178832 33.68442971 30.79996418 38.03323132 33.98828125 42.453125 C34.56747314 43.25395508 35.14666504 44.05478516 35.7434082 44.87988281 C37 47 37 47 37 50 C35.39657731 50.17367828 33.79218592 50.33840925 32.1875 50.5 C31.29417969 50.5928125 30.40085937 50.685625 29.48046875 50.78125 C24.65219298 51.08471065 19.83608556 51.03883973 15 51 C13.33866777 47.19860093 11.68498627 43.39398651 10.0378418 39.58642578 C9.47833015 38.2958382 8.91685909 37.00609802 8.35327148 35.71728516 C-0.49388285 15.47499603 -0.49388285 15.47499603 -0.1875 5.875 C-0.14689453 4.20050781 -0.14689453 4.20050781 -0.10546875 2.4921875 C-0.07066406 1.66976562 -0.03585937 0.84734375 0 0 Z " fill="#FCFCFC" transform="translate(656,163)"/>
<path d="M0 0 C0.66 0 1.32 0 2 0 C8.43097001 11.02452002 10.48982878 24.47446225 12 37 C12.185625 38.19625 12.37125 39.3925 12.5625 40.625 C11.64132539 46.15204765 8.49247753 50.67740469 5 55 C3.515 55.495 3.515 55.495 2 56 C-1.80585023 48.24734212 -4.09507428 40.25076832 -6.43164062 31.97070312 C-7.38050702 28.68064747 -8.44393474 25.42634087 -9.51953125 22.17578125 C-10.42419434 18.07905488 -10.60374536 15.11486129 -8.57421875 11.3671875 C-7.95160156 10.54476562 -7.32898438 9.72234375 -6.6875 8.875 C-6.07261719 8.04742188 -5.45773437 7.21984375 -4.82421875 6.3671875 C-3.92123047 5.19542969 -3.92123047 5.19542969 -3 4 C-2.20529297 2.85917969 -2.20529297 2.85917969 -1.39453125 1.6953125 C-0.93433594 1.13585937 -0.47414063 0.57640625 0 0 Z " fill="#FBFBFB" transform="translate(813,648)"/>
<path d="M0 0 C5.15000743 4.16503333 4.61019107 11.73092053 5.34375 17.8828125 C5.5309403 19.70791788 5.68603345 21.53660594 5.80859375 23.3671875 C5.95458609 25.96833144 5.95458609 25.96833144 6.41015625 28.3828125 C7.39953265 36.82734909 2.13168209 42.73273844 -2.65380859 49.17724609 C-4.05995266 51.08117638 -5.41431531 53.01661951 -6.76953125 54.95703125 C-7.87361328 56.46330078 -7.87361328 56.46330078 -9 58 C-9.33 58 -9.66 58 -10 58 C-10.04487549 56.95658447 -10.08975098 55.91316895 -10.13598633 54.83813477 C-10.30754559 50.92926423 -10.49617263 47.02136487 -10.68969727 43.11352539 C-10.77077976 41.42916954 -10.84736747 39.74459058 -10.91918945 38.05981445 C-11.30195786 29.15054974 -11.80738969 21.40690223 -15 13 C-14.78271484 10.9230957 -14.78271484 10.9230957 -14 9 C-11.66506471 7.25673558 -9.42222418 5.74132028 -6.9375 4.25 C-6.27427734 3.83878906 -5.61105469 3.42757813 -4.92773438 3.00390625 C-3.29181814 1.99175664 -1.64675068 0.99442493 0 0 Z " fill="#FCFCFB" transform="translate(890,335)"/>
<path d="M0 0 C0.99 0.33 1.98 0.66 3 1 C9.64626007 14.71825922 9.28212833 30.15691486 9 45 C5.9797577 45.64870339 2.95886021 46.29404156 -0.0625 46.9375 C-0.91005859 47.11990234 -1.75761719 47.30230469 -2.63085938 47.49023438 C-7.40917576 48.50493477 -12.15490384 49.3754625 -17 50 C-16.40772738 45.03875534 -14.80664173 40.84575307 -12.8125 36.3125 C-8.33702067 25.81819245 -4.92886307 14.99852591 -1.89453125 4.0078125 C-1 1 -1 1 0 0 Z " fill="#FBFBFA" transform="translate(926,313)"/>
<path d="M0 0 C0.886875 0.495 1.77375 0.99 2.6875 1.5 C2.6875 2.49 2.6875 3.48 2.6875 4.5 C-28.99849316 16.56319537 -28.99849316 16.56319537 -46.625 16.875 C-47.91567383 16.91415527 -47.91567383 16.91415527 -49.23242188 16.95410156 C-54.76987952 16.96920764 -57.97452647 16.25487812 -62.3125 12.5 C-64.6875 9.75 -64.6875 9.75 -66.3125 7.5 C-65.01699219 7.40203125 -63.72148438 7.3040625 -62.38671875 7.203125 C-53.17490625 6.45001831 -44.11188045 5.48187167 -35.0625 3.5625 C-34.31444092 3.40491211 -33.56638184 3.24732422 -32.7956543 3.08496094 C-28.99093785 2.23691917 -25.3552284 1.19523813 -21.6796875 -0.10546875 C-14.77633948 -2.47008958 -6.81915852 -2.90471255 0 0 Z " fill="#FBFCFB" transform="translate(629.3125,584.5)"/>
<path d="M0 0 C2.99106038 1.66170021 3.53769908 3.71453413 4.63916016 6.8515625 C5.73950429 11.17201845 5.64650059 15.44146432 5.5625 19.875 C5.5526709 20.84195801 5.5428418 21.80891602 5.53271484 22.80517578 C5.39682681 30.4237958 4.73475919 37.76433907 3.25 45.25 C3.105625 46.00023437 2.96125 46.75046875 2.8125 47.5234375 C1.21712836 54.73109864 -0.5949437 61.89400593 -6.75 66.25 C-6.73428955 65.43136475 -6.7185791 64.61272949 -6.70239258 63.76928711 C-6.44005636 47.93724119 -6.60322932 32.65716526 -9.09375 16.97265625 C-9.7632943 12.67728543 -9.87077821 8.59298327 -9.75 4.25 C-3.70192308 0.33653846 -3.70192308 0.33653846 0 0 Z " fill="#FCFCFC" transform="translate(867.75,349.75)"/>
<path d="M0 0 C-1 6 -1 6 -8 19 C-22.85 18.67 -37.7 18.34 -53 18 C-49.37888112 10.75776224 -41.96462567 7.46210171 -34.48828125 4.9453125 C-29.83916098 3.68541653 -25.16176012 2.68475108 -20.4375 1.75 C-19.56319336 1.57452637 -18.68888672 1.39905273 -17.78808594 1.21826172 C-11.80289621 0.10627765 -6.08133166 -0.20551101 0 0 Z " fill="#FAFAF9" transform="translate(924,402)"/>
<path d="M0 0 C7.48618237 -0.92718772 14.06120697 0.57585995 21.1875 2.6875 C22.03022461 2.93129395 22.87294922 3.17508789 23.74121094 3.42626953 C31.77444943 5.92070196 38.60438533 9.06742487 42.8359375 16.609375 C49 29.26845638 49 29.26845638 49 34 C43.92986328 32.265748 39.59752721 29.41850949 35.0625 26.625 C26.56141187 21.43364131 17.91015007 16.60567624 9.07250977 12.01025391 C8.19135498 11.54280762 7.3102002 11.07536133 6.40234375 10.59375 C5.62366943 10.18833984 4.84499512 9.78292969 4.04272461 9.36523438 C1.7403706 7.82647931 0.43734615 6.35937881 -1 4 C-0.6875 1.75 -0.6875 1.75 0 0 Z " fill="#FCFCFB" transform="translate(682,243)"/>
<path d="M0 0 C0.42906574 17.87773933 0.42906574 17.87773933 -2 25 C-4 27 -4 27 -6.79736328 27.22705078 C-7.95993652 27.21657715 -9.12250977 27.20610352 -10.3203125 27.1953125 C-12.20556641 27.18564453 -12.20556641 27.18564453 -14.12890625 27.17578125 C-15.44761719 27.15902344 -16.76632812 27.14226563 -18.125 27.125 C-19.46483721 27.11496983 -20.80468152 27.10584404 -22.14453125 27.09765625 C-25.42986573 27.07402075 -28.71484465 27.04107234 -32 27 C-31.14840574 19.6956039 -29.44958463 15.00207095 -23.83203125 10.11328125 C-16.99412342 5.10171446 -8.75801896 -0.51887725 0 0 Z " fill="#FCFDFC" transform="translate(887,634)"/>
<path d="M0 0 C1.6256807 0.30893932 3.25052748 0.6222695 4.875 0.9375 C5.77992188 1.11152344 6.68484375 1.28554688 7.6171875 1.46484375 C10 2 10 2 12 3 C19.28419517 4.22013485 26.72992519 4.29568474 34.09570312 4.51757812 C41.92881925 4.82351413 49.81771526 5.64826712 57 9 C57 9.99 57 10.98 57 12 C51.59860507 14.58138954 46.60028375 15.84380724 40.6875 16.6875 C39.82318359 16.81415039 38.95886719 16.94080078 38.06835938 17.07128906 C29.38686722 18.24420734 20.74358796 18.48994243 12 18 C11.26265625 17.97164062 10.5253125 17.94328125 9.765625 17.9140625 C6.64933927 16.30076414 5.3584632 13.10959282 3.75 10.125 C3.38648438 9.48691406 3.02296875 8.84882812 2.6484375 8.19140625 C1.02870372 5.2746676 0 3.38542353 0 0 Z " fill="#F9FAF9" transform="translate(548,567)"/>
<path d="M0 0 C5.40358104 0.42593915 9.75811509 2.48884653 14.5625 4.8125 C15.78694824 5.39994995 15.78694824 5.39994995 17.03613281 5.99926758 C23.55889093 9.18464254 29.93028693 12.61787186 36.25 16.1875 C37.11826416 16.67387939 37.98652832 17.16025879 38.88110352 17.66137695 C51.5762134 24.9667155 51.5762134 24.9667155 54.4375 31.0625 C54.96222461 33.80272853 55.16355313 36.2195968 55 39 C49.8915293 37.30398773 45.71093525 34.30467025 41.25 31.375 C29.56063901 23.84646937 17.3992428 18.01866836 4.3203125 13.30078125 C1.38045744 11.65268068 0.41387203 10.02642542 -1 7 C-1.25 3.75 -1.25 3.75 -1 1 C-0.67 0.67 -0.34 0.34 0 0 Z " fill="#F9FAF9" transform="translate(689,289)"/>
<path d="M0 0 C0.66 0 1.32 0 2 0 C3.19140625 1.8359375 3.19140625 1.8359375 4.5625 4.375 C8.00453045 10.31040374 12.27218963 15.06225133 17 20 C17.52980469 20.59296875 18.05960938 21.1859375 18.60546875 21.796875 C23.15482073 26.70877174 28.55602211 30.44926756 34.02197266 34.26928711 C35.71448744 35.46731875 37.36182471 36.72867478 39 38 C39 38.66 39 39.32 39 40 C27.37697137 40.51361992 14.14081075 40.22201792 5 32 C-1.33893688 23.12548837 -0.25249259 10.39427847 0 0 Z " fill="#F9F9F8" transform="translate(539,525)"/>
<path d="M0 0 C-1.04920093 6.07037683 -4.54748902 11.57974967 -9.00244141 15.74560547 C-15.23394032 19.65876135 -24.23132734 18.31523358 -31.28808594 18.06396484 C-34.88340248 17.97916354 -38.35671129 18.23590059 -41.9375 18.5625 C-42.93652344 18.64628906 -43.93554688 18.73007812 -44.96484375 18.81640625 C-45.63644531 18.87699219 -46.30804687 18.93757812 -47 19 C-44.95439107 13.53869988 -42.38699664 7.98597884 -37.16796875 4.92578125 C-34.79465972 4.06812273 -32.47173466 3.5170993 -30 3 C-28.79730469 2.72414063 -27.59460938 2.44828125 -26.35546875 2.1640625 C-17.46099499 0.23769009 -9.11974509 -0.38473925 0 0 Z " fill="#FBFBFB" transform="translate(873,686)"/>
<path d="M0 0 C0.67456238 0.00126892 1.34912476 0.00253784 2.04412842 0.00384521 C40.01530643 0.14030643 40.01530643 0.14030643 50.0625 10.1875 C50.0625 11.1775 50.0625 12.1675 50.0625 13.1875 C32.19347027 13.91629729 14.33278866 11.59403977 -3.1875 8.1875 C-3.99026367 8.0337793 -4.79302734 7.88005859 -5.62011719 7.72167969 C-10.12788203 6.7852279 -13.88096712 5.46122544 -17.9375 3.1875 C-15.30850894 -2.07048211 -5.14023407 -0.00972973 0 0 Z " fill="#F9F9F8" transform="translate(625.9375,451.8125)"/>
<path d="M0 0 C0.66 0 1.32 0 2 0 C4.00567371 8.05308383 5.66292869 16.15645257 7.1875 24.3125 C7.36635742 25.24271973 7.54521484 26.17293945 7.72949219 27.13134766 C8.71728821 32.51801308 9.18616406 37.52420873 9 43 C1.71837152 45.84737559 -5.55697903 48.60309494 -13 51 C-11.31115938 41.35583122 -8.96167516 32.05468138 -6.20385742 22.6640625 C-4.42360453 16.57757505 -2.87041981 10.50359801 -1.54296875 4.30078125 C-1 2 -1 2 0 0 Z " fill="#FBFBFA" transform="translate(877,584)"/>
<path d="M0 0 C0.85980469 -0.01224609 1.71960938 -0.02449219 2.60546875 -0.03710938 C8.48030769 -0.05068759 12.54095751 0.15245744 17.03125 4.2890625 C28.75 17.61707746 28.75 17.61707746 28.75 22.1875 C23.12539269 21.58011833 17.7929681 20.56962329 12.3125 19.1875 C7.67626916 18.03989319 3.21881369 17.00519526 -1.5625 16.6875 C-5.25 16.1875 -5.25 16.1875 -7.75 14.3125 C-10.77842664 10.02222893 -10.41269139 6.230933 -10.25 1.1875 C-8.03241617 -1.03008383 -2.9771636 0.00219231 0 0 Z " fill="#FBFBFB" transform="translate(686.25,219.8125)"/>
<path d="M0 0 C1.25296875 -0.00128906 2.5059375 -0.00257813 3.796875 -0.00390625 C5.09367188 -0.00003906 6.39046875 0.00382812 7.7265625 0.0078125 C9.66015625 0.00201172 9.66015625 0.00201172 11.6328125 -0.00390625 C17.96460718 0.00259457 24.09479844 0.13489823 30.3515625 1.1328125 C31.06640625 3.33203125 31.06640625 3.33203125 31.3515625 6.1328125 C29.91796875 8.58984375 29.91796875 8.58984375 27.9140625 10.9453125 C27.25535156 11.73550781 26.59664062 12.52570313 25.91796875 13.33984375 C25.14259766 14.22736328 25.14259766 14.22736328 24.3515625 15.1328125 C19.40359943 14.47943636 14.52379901 13.61233179 9.62255859 12.6730957 C1.07295201 11.04288035 -7.26230929 9.68111872 -15.96875 9.30859375 C-18.33610381 9.15330086 -20.38005671 8.80030254 -22.6484375 8.1328125 C-22.1484375 6.3203125 -22.1484375 6.3203125 -20.6484375 4.1328125 C-14.19108095 0.72640882 -7.204113 0.00717439 0 0 Z " fill="#FBFBFB" transform="translate(877.6484375,425.8671875)"/>
<path d="M0 0 C3.6411362 1.60940791 4.5635596 5.31839703 5.93652344 8.85595703 C6.86167878 11.78474201 7.56154876 14.72489646 8.18652344 17.73095703 C8.35128174 18.52179687 8.51604004 19.31263672 8.68579102 20.12744141 C11.47018767 34.10830052 11.47018767 34.10830052 8.36230469 39.67626953 C6.64996951 42.17009642 4.87333108 44.5337642 2.93652344 46.85595703 C0.47050087 44.38993447 0.20411779 42.691802 -0.64941406 39.32470703 C-0.94074219 38.20322266 -1.23207031 37.08173828 -1.53222656 35.92626953 C-1.83128906 34.74806641 -2.13035156 33.56986328 -2.43847656 32.35595703 C-4.32056441 24.94419515 -6.21529389 17.88314166 -9.51123047 10.95947266 C-10.06347656 8.85595703 -10.06347656 8.85595703 -9.25195312 6.67553711 C-7.15759753 3.46903911 -4.09302249 -0.28571738 0 0 Z " fill="#FCFCFC" transform="translate(830.0634765625,635.14404296875)"/>
<path d="M0 0 C5.98474959 0.37404685 10.64654005 1.70641082 15 6 C21.59468214 16.18819157 25.70453587 27.78804489 25 40 C19.56545963 39.66034123 15.6913644 36.78601477 12 33 C6.31522148 24.425346 0 10.43257384 0 0 Z " fill="#FBFBFA" transform="translate(656,560)"/>
<path d="M0 0 C4.61708807 1.4328894 8.16782059 3.73965808 11.625 7.125 C11.625 7.785 11.625 8.445 11.625 9.125 C10.62339844 9.52332031 9.62179687 9.92164063 8.58984375 10.33203125 C7.24737704 10.86714036 5.90493019 11.40229928 4.5625 11.9375 C3.90572266 12.19853516 3.24894531 12.45957031 2.57226562 12.72851562 C-0.60746479 13.99727505 -3.74797556 15.29294318 -6.87109375 16.69921875 C-13.98142732 19.59249829 -20.22446624 20.41198199 -27.875 20.25 C-29.10863281 20.23646484 -29.10863281 20.23646484 -30.3671875 20.22265625 C-32.36992083 20.19936865 -34.37250154 20.16350959 -36.375 20.125 C-35.375 17.125 -35.375 17.125 -32.9699707 15.65454102 C-31.92413818 15.15108154 -30.87830566 14.64762207 -29.80078125 14.12890625 C-28.08665039 13.29069336 -28.08665039 13.29069336 -26.33789062 12.43554688 C-25.12139968 11.85222615 -23.90459994 11.26954899 -22.6875 10.6875 C-20.32762021 9.54669895 -17.96948728 8.40227588 -15.61328125 7.25390625 C-14.56180908 6.74931885 -13.51033691 6.24473145 -12.42700195 5.72485352 C-9.27845944 4.1519823 -9.27845944 4.1519823 -6.19604492 1.93725586 C-3.375 0.125 -3.375 0.125 0 0 Z " fill="#FBFBFA" transform="translate(666.375,600.875)"/>
<path d="M0 0 C15.20032594 2.094863 15.20032594 2.094863 19.06640625 6.1875 C20.37721937 9.0946499 21.20398689 11.91132242 22 15 C22.44715308 16.30901807 22.90747705 17.61359001 23.37890625 18.9140625 C27 29.02356006 27 29.02356006 27 34 C20.58892157 33.73832333 17.35213353 31.66136244 13 27 C11.16899915 24.28565369 9.72942696 21.44782977 8.3125 18.5 C7.58252253 17.02970909 6.84949499 15.56092818 6.11328125 14.09375 C5.59241943 13.04574219 5.59241943 13.04574219 5.06103516 11.9765625 C3.89819083 9.72163531 3.89819083 9.72163531 1.73046875 6.71875 C0 4 0 4 0 0 Z " fill="#FAFBFA" transform="translate(630,553)"/>
<path d="M0 0 C2.4921875 2.046875 2.4921875 2.046875 4.875 4.75 C5.67679688 5.63171875 6.47859375 6.5134375 7.3046875 7.421875 C9 10 9 10 8.97265625 12.21875 C7.49112636 14.93191317 5.18329841 15.55037931 2.3515625 16.4609375 C-8.48090842 18.94412851 -20.76488338 15.61054728 -31 12 C-31 11.34 -31 10.68 -31 10 C-26.77616781 8.31958427 -22.54513677 6.65810016 -18.3125 5 C-16.51522461 4.28457031 -16.51522461 4.28457031 -14.68164062 3.5546875 C-13.52470703 3.10351562 -12.36777344 2.65234375 -11.17578125 2.1875 C-9.58117065 1.55908203 -9.58117065 1.55908203 -7.9543457 0.91796875 C-5.05709854 0.01774155 -3.00363209 -0.35021375 0 0 Z " fill="#F9FAF9" transform="translate(687,615)"/>
<path d="M0 0 C4.28211456 13.22867534 5.23736686 26.25878248 -0.90625 38.97265625 C-1.2671875 39.64167969 -1.628125 40.31070313 -2 41 C-2.66 41 -3.32 41 -4 41 C-4.19634033 40.42556152 -4.39268066 39.85112305 -4.5949707 39.25927734 C-5.4964936 36.62968104 -6.40443967 34.00234558 -7.3125 31.375 C-7.62123047 30.47136719 -7.92996094 29.56773437 -8.24804688 28.63671875 C-9.58060975 24.79332688 -10.89040743 21.20772449 -12.79296875 17.6015625 C-14 15 -14 15 -14.02734375 12.984375 C-12.4289337 9.89695178 -10.03248062 7.64151872 -7.5625 5.25 C-7.05912109 4.74339844 -6.55574219 4.23679687 -6.03710938 3.71484375 C-2.26719382 0 -2.26719382 0 0 0 Z " fill="#FCFCFC" transform="translate(850,616)"/>
<path d="M0 0 C-0.77719477 14.50763562 -6.9948508 27.98595909 -13 41 C-13.99 41 -14.98 41 -16 41 C-22.06804883 21.62269739 -22.06804883 21.62269739 -20 17 C-17.8570067 14.44822764 -15.47389571 12.227454 -13 10 C-12.30648437 9.37351562 -11.61296875 8.74703125 -10.8984375 8.1015625 C-1.77136076 0 -1.77136076 0 0 0 Z " fill="#FBFBFA" transform="translate(918,312)"/>
<path d="M0 0 C9.35921191 1.16625694 20.06091814 5.17498833 26.5625 12.1875 C37 25.69348552 37 25.69348552 37 32 C24.22341205 30.29190001 9.2628854 14.04000421 1.0390625 4.62109375 C0 3 0 3 0 0 Z " fill="#F9FAF9" transform="translate(549,526)"/>
<path d="M0 0 C-1.5438607 3.83333593 -3.92456277 5.98308208 -7 8.6875 C-7.886875 9.47511719 -8.77375 10.26273438 -9.6875 11.07421875 C-13.29776576 14.08074075 -15.23875778 14.1202002 -19.8828125 14.09765625 C-21.04941406 14.09443359 -22.21601562 14.09121094 -23.41796875 14.08789062 C-24.64128906 14.07951172 -25.86460937 14.07113281 -27.125 14.0625 C-28.35605469 14.05798828 -29.58710937 14.05347656 -30.85546875 14.04882812 C-33.90369392 14.0370133 -36.95182314 14.02054028 -40 14 C-39.02336989 9.38487421 -37.02943132 8.05921673 -33.2421875 5.390625 C-23.03371745 -0.94076061 -11.62120624 -0.14877789 0 0 Z " fill="#FBFBFB" transform="translate(852,710)"/>
<path d="M0 0 C0.90621094 0.00064453 1.81242188 0.00128906 2.74609375 0.00195312 C9.45248724 0.04666241 9.45248724 0.04666241 12.875 1.1875 C12.125 7.8125 12.125 7.8125 9.875 11.1875 C7.21040911 11.5277246 4.73486088 11.69695856 2.0625 11.75 C-4.53195025 11.99550828 -10.88119398 12.6299852 -17.390625 13.78515625 C-20.0151131 14.17133093 -22.47710603 14.25997885 -25.125 14.1875 C-24.80096734 11.0497837 -24.46289723 9.53586925 -22.234375 7.23828125 C-21.45578125 6.66464844 -20.6771875 6.09101562 -19.875 5.5 C-19.10671875 4.91863281 -18.3384375 4.33726562 -17.546875 3.73828125 C-11.67579536 -0.02110362 -6.81229876 -0.09285056 0 0 Z " fill="#FAFAF9" transform="translate(868.125,667.8125)"/>
<path d="M0 0 C5.13376845 0.20954157 8.1458413 1.16823305 12.03515625 4.79296875 C27 21.60238569 27 21.60238569 27 30 C20.83634253 30.81100756 15.98027049 28.41504262 11 25 C8.74215803 22.57639242 7.41044484 19.98235475 6 17 C5.46246094 15.92234375 4.92492187 14.8446875 4.37109375 13.734375 C0 4.68793503 0 4.68793503 0 0 Z " fill="#FBFCFB" transform="translate(607,548)"/>
<path d="M0 0 C0.66 0 1.32 0 2 0 C12.10159719 28.44179208 12.10159719 28.44179208 11 41 C10.67 41.66 10.34 42.32 10 43 C8.68 43 7.36 43 6 43 C5.55346069 41.97060303 5.55346069 41.97060303 5.09790039 40.92041016 C3.75333724 37.82169227 2.40792928 34.72334191 1.0625 31.625 C0.35963867 30.00464844 0.35963867 30.00464844 -0.35742188 28.3515625 C-1.0293457 26.8046875 -1.0293457 26.8046875 -1.71484375 25.2265625 C-2.12855225 24.27346191 -2.54226074 23.32036133 -2.96850586 22.33837891 C-3.61297141 20.87738695 -4.2858805 19.42823901 -5 18 C-5.06438855 11.07179158 -3.42114299 5.95941037 0 0 Z " fill="#FAFAF9" transform="translate(797,676)"/>
<path d="M0 0 C12.25769209 9.31584599 15.7751588 22.24363857 18 37 C18.14431774 39.69863326 18.10717278 42.2954634 18 45 C14.26275228 44.44846785 12.7764009 43.03850239 10.375 40.1875 C9.78460937 39.50042969 9.19421875 38.81335938 8.5859375 38.10546875 C5.17010172 33.57065228 4.57441547 29.58666302 4.0625 24 C3.40479399 17.59457508 2.3343628 11.53501231 0.5859375 5.3203125 C0 3 0 3 0 0 Z " fill="#F8F9F8" transform="translate(683,573)"/>
<path d="M0 0 C0.28546399 5.99474381 -0.75532275 11.25413768 -2.1875 17.0625 C-2.40946045 17.98119873 -2.6314209 18.89989746 -2.86010742 19.84643555 C-4.74711889 27.43759415 -7.12703967 34.72590896 -10 42 C-10.66 42 -11.32 42 -12 42 C-12.67812114 40.1291122 -13.3419946 38.25305707 -14 36.375 C-14.37125 35.33085938 -14.7425 34.28671875 -15.125 33.2109375 C-17.09628196 25.97703672 -15.35045562 21.86176331 -11.875 15.5625 C-11.49601563 14.83740234 -11.11703125 14.11230469 -10.7265625 13.36523438 C-3.5215844 0 -3.5215844 0 0 0 Z " fill="#F9FAF9" transform="translate(870,579)"/>
<path d="M0 0 C7.76561661 1.50522965 13.7805688 8.47990528 19.4140625 13.63671875 C21.14426002 15.21794156 22.88930632 16.78306176 24.6484375 18.33203125 C29.5126715 22.61927653 34.02059028 26.86865589 38 32 C38 32.66 38 33.32 38 34 C25.27988662 32.79572891 12.74787208 18.46385675 4.9375 9.1875 C0.58973354 3.89224138 0.58973354 3.89224138 0 0 Z " fill="#F8F8F7" transform="translate(374,619)"/>
<path d="M0 0 C4.72252646 -0.32947859 7.19129389 0.17785042 11 3 C15.36769223 9.79306972 20.77733983 19.70837519 20 28 C14.6250508 26.75001181 12.06746748 24.40678427 9 20 C7.25141144 16.98348732 5.70776642 13.88665618 4.1875 10.75 C3.78080078 9.9353125 3.37410156 9.120625 2.95507812 8.28125 C0 2.28169643 0 2.28169643 0 0 Z " fill="#F9FAF9" transform="translate(586,541)"/>
<path d="M0 0 C3.59617549 3.24874624 4.68037979 6.82841508 6.25 11.3125 C6.53101563 12.05951172 6.81203125 12.80652344 7.1015625 13.57617188 C9.09393021 19.19326795 9.40151659 22.99478082 6.80859375 28.5546875 C6.35613281 29.32039062 5.90367187 30.08609375 5.4375 30.875 C4.75494141 32.04675781 4.75494141 32.04675781 4.05859375 33.2421875 C3.53458984 34.11230469 3.53458984 34.11230469 3 35 C0.03881907 32.55380706 -0.4447308 30.74625139 -1 27 C-1.09006705 24.95462837 -1.13062716 22.90672753 -1.1328125 20.859375 C-1.13410156 19.70695313 -1.13539063 18.55453125 -1.13671875 17.3671875 C-1.13285156 16.17351563 -1.12898437 14.97984375 -1.125 13.75 C-1.12886719 12.54085937 -1.13273438 11.33171875 -1.13671875 10.0859375 C-1.13542969 8.93867187 -1.13414062 7.79140625 -1.1328125 6.609375 C-1.13168457 5.55717773 -1.13055664 4.50498047 -1.12939453 3.42089844 C-1 1 -1 1 0 0 Z " fill="#F4F5F4" transform="translate(790,706)"/>
<path d="M0 0 C3.40573635 0.70929385 6.24322419 1.96535106 9.36328125 3.4921875 C9.03328125 4.4821875 8.70328125 5.4721875 8.36328125 6.4921875 C5.51452988 7.50062155 2.78269229 8.31786163 -0.13671875 9.0546875 C-0.9153125 9.26287109 -1.69390625 9.47105469 -2.49609375 9.68554688 C-7.84598804 11.09830869 -13.22975681 12.31887676 -18.63671875 13.4921875 C-17.13628739 10.36904024 -15.5005131 7.97037207 -13.19921875 5.3671875 C-12.60238281 4.68398438 -12.00554688 4.00078125 -11.390625 3.296875 C-7.46426651 -0.74316424 -5.2226282 -0.70090919 0 0 Z " fill="#F7F8F6" transform="translate(788.63671875,491.5078125)"/>
<path d="M0 0 C4.44655268 6.66982903 4.35996385 18.17138964 3 26 C1.22463067 29.43454956 -0.77745023 31.84920321 -4 34 C-4.66 34 -5.32 34 -6 34 C-1.73959445 1.73959445 -1.73959445 1.73959445 0 0 Z " fill="#FAFAFA" transform="translate(773,460)"/>
<path d="M0 0 C0 0.99 0 1.98 0 3 C-1.3894043 4.22680664 -1.3894043 4.22680664 -3.32421875 5.41015625 C-4.02353516 5.84263672 -4.72285156 6.27511719 -5.44335938 6.72070312 C-6.18392578 7.16349609 -6.92449219 7.60628906 -7.6875 8.0625 C-8.40873047 8.50916016 -9.12996094 8.95582031 -9.87304688 9.41601562 C-19.01275224 15 -19.01275224 15 -24 15 C-23.05005098 10.06247427 -20.39630453 6.61913899 -17 3 C-11.44096001 -0.42094769 -6.32078535 -0.34338271 0 0 Z " fill="#F7F8F6" transform="translate(822,731)"/>
</svg>
