<?xml version="1.0" standalone="no"?>
<!DOCTYPE svg PUBLIC "-//W3C//DTD SVG 20010904//EN"
 "http://www.w3.org/TR/2001/REC-SVG-20010904/DTD/svg10.dtd">
<svg version="1.0" xmlns="http://www.w3.org/2000/svg"
 width="410.000000pt" height="404.000000pt" viewBox="0 0 410.000000 404.000000"
 preserveAspectRatio="xMidYMid meet">

<g transform="translate(0.000000,404.000000) scale(0.100000,-0.100000)"
fill="#000000" stroke="none">
<path d="M3598 3307 c-196 -144 -357 -268 -358 -275 0 -16 -1105 -2215 -1132
-2254 -23 -33 -57 -36 -82 -9 -17 19 -14 39 75 475 98 484 98 486 45 486 -11
0 -76 -16 -143 -37 -103 -31 -126 -35 -148 -25 -32 15 -32 30 5 217 16 82 27
151 25 153 -4 4 -635 -456 -667 -487 -16 -15 -15 -21 26 -91 23 -41 199 -352
391 -690 191 -338 358 -625 372 -637 30 -28 92 -31 121 -5 12 9 159 265 328
567 1494 2676 1544 2767 1544 2799 0 27 -27 77 -41 76 -2 0 -165 -119 -361
-263z"/>
</g>
</svg>
